<svg width="1440" height="1024" viewBox="0 0 1440 1024" fill="none" xmlns="http://www.w3.org/2000/svg">
<rect width="1440" height="1024" fill="#E5E5E5"/>
<rect width="1440" height="1024" fill="#56CCF2"/>
<path d="M191.726 474.792C196.486 474.833 200.104 475.839 202.58 477.81C205.057 479.781 206.28 482.444 206.251 485.798L206.238 487.294C206.197 492.054 204.083 495.322 199.897 497.1C202.431 497.666 204.392 498.861 205.782 500.687C207.217 502.467 207.923 504.672 207.9 507.301L207.887 508.797C207.855 512.56 206.492 515.54 203.798 517.738C201.149 519.937 197.15 521.013 191.801 520.966C188.764 520.94 184.617 520.768 179.361 520.45L179.756 474.96C183.928 474.815 187.918 474.759 191.726 474.792ZM190.799 479.748C189.167 479.734 187.399 479.786 185.493 479.906L185.361 495.137L192.025 495.195C194.745 495.219 196.813 494.579 198.23 493.277C199.692 491.975 200.433 490.145 200.454 487.788L200.464 486.632C200.483 484.365 199.727 482.659 198.196 481.512C196.665 480.365 194.199 479.777 190.799 479.748ZM185.32 499.829L185.185 515.468C186.679 515.617 187.902 515.741 188.854 515.84C189.851 515.894 190.848 515.926 191.845 515.934C195.335 515.965 197.902 515.33 199.546 514.029C201.235 512.684 202.09 510.81 202.111 508.407L202.123 506.979C202.164 502.31 198.92 499.947 192.392 499.89L185.32 499.829ZM226.124 486.447C229.932 486.48 232.824 487.548 234.801 489.65C236.777 491.753 237.748 494.776 237.714 498.72L237.653 505.724L220.178 505.572L220.143 509.584C220.123 511.896 220.652 513.578 221.731 514.63C222.856 515.637 224.619 516.151 227.022 516.172C229.379 516.192 232.329 515.855 235.871 515.161L235.963 520.193C231.741 520.928 228.723 521.287 226.91 521.271C222.422 521.232 219.189 520.229 217.211 518.263C215.279 516.296 214.331 513.273 214.366 509.194L214.459 498.518C214.493 494.574 215.471 491.568 217.393 489.499C219.361 487.431 222.271 486.413 226.124 486.447ZM226.082 491.275C224.314 491.259 222.904 491.814 221.851 492.938C220.799 494.017 220.264 495.599 220.246 497.684L220.218 500.948L231.913 501.05L231.94 497.99C231.959 495.814 231.429 494.154 230.351 493.012C229.318 491.869 227.895 491.29 226.082 491.275ZM255.177 486.699C257.081 486.716 259.368 487.007 262.038 487.575L261.859 492.469C259.507 491.905 257.356 491.614 255.406 491.597C251.327 491.562 249.275 492.859 249.252 495.488L249.247 496.1C249.24 496.916 249.438 497.575 249.842 498.077C250.291 498.58 251.08 499.108 252.208 499.662L258.574 502.709C262.412 504.556 264.315 507.224 264.285 510.715L264.272 512.211C264.199 515.338 263.227 517.687 261.355 519.258C259.528 520.783 256.643 521.529 252.699 521.495C250.659 521.477 247.739 520.976 243.94 519.991L244.256 514.825C247.648 515.852 250.431 516.375 252.607 516.394C254.828 516.413 256.372 516.132 257.239 515.55C258.105 514.923 258.545 513.907 258.557 512.501L258.563 511.821C258.572 510.733 258.353 509.87 257.905 509.232C257.503 508.593 256.805 508.043 255.812 507.581L249.241 504.6C247.255 503.676 245.791 502.575 244.85 501.298C243.954 500.021 243.514 498.544 243.528 496.866L243.537 495.914C243.654 492.833 244.626 490.529 246.453 489.003C248.325 487.433 251.233 486.665 255.177 486.699ZM278.414 487.717L287.254 487.794L287.212 492.553L278.373 492.477L278.204 511.924C278.189 513.646 278.518 514.896 279.191 515.673C279.91 516.404 281.018 516.777 282.514 516.789C284.418 516.806 286.278 516.595 288.095 516.158L288.189 520.987C286.19 521.514 284.374 521.77 282.743 521.756C279.116 521.724 276.471 520.908 274.807 519.307C273.19 517.661 272.397 515.024 272.428 511.398L272.593 492.426L267.833 492.385L267.874 487.625L272.634 487.667L273.799 478.836L278.491 478.877L278.414 487.717ZM321.231 487.272C324.087 487.297 326.299 488.291 327.869 490.254C329.439 492.217 330.208 495.035 330.176 498.707L330.071 510.81C330.04 514.346 329.086 517.126 327.21 519.15C325.38 521.128 322.9 522.104 319.772 522.077C318.594 522.067 317.327 521.807 315.971 521.296C314.66 520.831 313.441 520.277 312.313 519.632L312.191 533.776L306.411 533.726L306.808 487.963L312.248 488.011L312.206 492.838C314.732 489.097 317.74 487.242 321.231 487.272ZM320.03 492.43C318.715 492.419 317.374 492.906 316.005 493.891C314.682 494.832 313.515 496.137 312.503 497.805L312.358 514.464C313.304 515.243 314.341 515.864 315.47 516.328C316.645 516.746 317.709 516.959 318.661 516.967C322.378 517 324.257 514.658 324.298 509.944L324.389 499.472C324.429 494.803 322.976 492.456 320.03 492.43ZM353.571 487.553C354.205 487.559 354.704 487.608 355.066 487.702L355.009 494.23C354.33 494.088 353.447 494.012 352.359 494.003C349.186 493.975 346.656 495.54 344.77 498.697L344.572 521.476L338.792 521.426L339.08 488.243L344.52 488.291L344.477 493.255C345.717 491.407 347.089 489.99 348.594 489.006C350.144 488.022 351.803 487.538 353.571 487.553ZM372.023 487.713C376.057 487.748 379.04 488.862 380.97 491.055C382.946 493.203 383.917 496.249 383.883 500.193L383.795 510.257C383.761 514.2 382.737 517.252 380.724 519.41C378.756 521.524 375.755 522.563 371.72 522.528C367.686 522.493 364.681 521.402 362.704 519.254C360.774 517.061 359.826 513.993 359.86 510.049L359.948 499.985C359.982 496.041 360.983 493.012 362.951 490.899C364.964 488.74 367.988 487.678 372.023 487.713ZM371.981 492.541C370.031 492.524 368.507 493.123 367.409 494.338C366.31 495.552 365.751 497.293 365.732 499.559L365.636 510.575C365.616 512.841 366.145 514.591 367.222 515.825C368.3 517.058 369.813 517.683 371.762 517.7C373.712 517.717 375.235 517.118 376.334 515.904C377.433 514.689 377.992 512.949 378.011 510.682L378.108 499.599C378.127 497.332 377.598 495.605 376.521 494.417C375.443 493.183 373.93 492.558 371.981 492.541ZM403.688 487.988C405.682 488.006 407.493 488.316 409.12 488.92L419.729 488.876L419.684 493.975L414.11 493.791C414.866 495.43 415.237 497.133 415.221 498.901L415.208 500.397C415.18 503.706 414.136 506.372 412.079 508.394C410.022 510.371 407.157 511.343 403.485 511.311C401.128 511.291 399.203 511.048 397.711 510.581C396.707 511.389 396.2 512.314 396.191 513.356L396.188 513.764C396.181 514.49 396.403 515.035 396.853 515.402C397.304 515.723 398.186 515.935 399.5 516.037L409.625 516.873C411.709 517.072 413.379 517.88 414.636 519.297C415.939 520.668 416.581 522.396 416.563 524.482L416.541 526.997C416.525 528.947 416.125 530.53 415.344 531.747C414.563 532.964 413.127 533.881 411.036 534.498C408.991 535.115 406.041 535.407 402.188 535.373C400.738 535.361 399.016 535.187 397.025 534.852C395.078 534.518 393.223 534.094 391.459 533.58L391.71 528.21C395.914 529.652 399.489 530.386 402.435 530.411C404.883 530.432 406.698 530.289 407.879 529.982C409.106 529.721 409.903 529.297 410.27 528.711C410.683 528.125 410.895 527.243 410.905 526.064L410.91 525.52C410.919 524.478 410.632 523.659 410.047 523.065C409.508 522.471 408.718 522.147 407.676 522.092L397.482 521.324C395.307 521.169 393.658 520.543 392.534 519.445C391.41 518.347 390.856 516.869 390.873 515.01L390.884 513.65C390.893 512.653 391.151 511.68 391.658 510.733C392.21 509.786 392.988 508.954 393.991 508.237C393.228 507.369 392.671 506.276 392.32 504.958C392.014 503.596 391.87 501.94 391.887 499.99L391.9 498.494C391.928 495.276 392.947 492.723 394.959 490.837C396.97 488.905 399.88 487.955 403.688 487.988ZM403.646 492.816C401.742 492.8 400.264 493.286 399.213 494.274C398.207 495.217 397.697 496.595 397.681 498.409L397.661 500.653C397.647 502.33 397.772 503.578 398.037 504.396C398.348 505.169 398.887 505.718 399.655 506.042C400.423 506.321 401.578 506.467 403.119 506.48C405.204 506.498 406.773 506.013 407.824 505.025C408.875 504.037 409.409 502.613 409.425 500.755L409.443 498.715C409.459 496.811 409.202 495.154 408.67 493.744C408.128 493.512 407.382 493.302 406.431 493.112C405.526 492.923 404.598 492.824 403.646 492.816ZM439.63 488.3C440.265 488.306 440.763 488.356 441.125 488.449L441.068 494.977C440.389 494.835 439.506 494.76 438.418 494.75C435.245 494.723 432.715 496.287 430.829 499.444L430.631 522.224L424.851 522.173L425.14 488.991L430.579 489.038L430.536 494.002C431.776 492.154 433.149 490.738 434.653 489.753C436.203 488.769 437.862 488.285 439.63 488.3ZM456.395 488.446C460.293 488.48 463.119 489.388 464.871 491.172C466.67 492.91 467.552 495.683 467.519 499.491L467.319 522.542L461.811 522.494L461.857 517.19C459.193 521.247 456.206 523.262 452.897 523.233C450.267 523.21 448.167 522.285 446.596 520.458C445.071 518.631 444.322 516.154 444.349 513.026L444.365 511.122C444.389 508.402 445.338 506.167 447.212 504.415C449.086 502.618 451.587 501.733 454.715 501.76C456.438 501.775 458.77 502.09 461.711 502.705L461.744 498.965C461.76 497.016 461.319 495.606 460.42 494.737C459.566 493.868 458.21 493.426 456.352 493.41C454.176 493.391 451.113 493.704 447.163 494.35L447.206 489.386C451.473 488.743 454.536 488.43 456.395 488.446ZM456.104 506.26C454.2 506.244 452.745 506.73 451.739 507.718C450.733 508.707 450.222 510.108 450.207 511.921L450.2 512.669C450.186 514.346 450.559 515.664 451.322 516.623C452.084 517.582 453.055 518.066 454.233 518.076C455.457 518.087 456.708 517.576 457.987 516.545C459.311 515.468 460.525 513.96 461.63 512.02L461.676 506.784C459.956 506.452 458.099 506.277 456.104 506.26ZM508.7 488.9C511.601 488.925 513.813 489.942 515.337 491.95C516.862 493.912 517.608 496.707 517.577 500.334L517.38 522.977L511.6 522.927L511.79 501.099C511.829 496.566 510.398 494.287 507.497 494.262C506.228 494.251 504.909 494.738 503.54 495.724C502.217 496.709 501.049 498.059 500.037 499.773L499.837 522.824L494.057 522.774L494.246 500.947C494.286 496.414 492.855 494.135 489.954 494.11C488.684 494.098 487.365 494.586 485.997 495.571C484.674 496.557 483.506 497.907 482.494 499.621L482.293 522.672L476.514 522.622L476.802 489.439L482.241 489.486L482.198 494.45C483.393 492.602 484.765 491.186 486.315 490.202C487.865 489.218 489.479 488.733 491.156 488.748C493.241 488.766 494.982 489.325 496.378 490.425C497.774 491.48 498.781 493.03 499.398 495.076C500.639 493.046 502.058 491.517 503.654 490.488C505.25 489.414 506.932 488.885 508.7 488.9ZM559.1 489.338C562.001 489.363 564.214 490.379 565.738 492.387C567.262 494.35 568.009 497.145 567.977 500.771L567.781 523.414L562.001 523.364L562.19 501.537C562.23 497.004 560.799 494.725 557.897 494.699C556.628 494.688 555.309 495.176 553.941 496.161C552.617 497.147 551.45 498.497 550.437 500.211L550.237 523.262L544.457 523.212L544.647 501.385C544.686 496.851 543.255 494.572 540.354 494.547C539.085 494.536 537.766 495.023 536.397 496.009C535.074 496.995 533.906 498.345 532.894 500.059L532.694 523.11L526.914 523.059L527.202 489.877L532.642 489.924L532.599 494.888C533.794 493.039 535.166 491.623 536.716 490.639C538.266 489.655 539.879 489.171 541.557 489.185C543.642 489.203 545.382 489.763 546.778 490.863C548.175 491.918 549.181 493.468 549.798 495.513C551.04 493.484 552.458 491.955 554.054 490.926C555.65 489.852 557.332 489.322 559.1 489.338ZM583.382 490.364L583.094 523.547L577.314 523.497L577.603 490.314L583.382 490.364ZM580.575 476.944C581.799 476.954 582.726 477.234 583.356 477.784C584.031 478.334 584.364 479.107 584.355 480.105L584.338 482.076C584.33 483.074 583.983 483.841 583.298 484.38C582.659 484.873 581.728 485.114 580.504 485.103C579.325 485.093 578.398 484.836 577.723 484.331C577.093 483.782 576.782 483.008 576.791 482.011L576.808 480.039C576.816 479.042 577.14 478.274 577.78 477.735C578.464 477.197 579.396 476.933 580.575 476.944ZM607.366 489.757C610.267 489.782 612.48 490.798 614.004 492.806C615.573 494.769 616.343 497.564 616.311 501.191L616.114 523.834L610.335 523.784L610.524 501.957C610.564 497.423 609.11 495.144 606.163 495.118C604.849 495.107 603.507 495.594 602.139 496.58C600.77 497.565 599.58 498.915 598.567 500.629L598.367 523.68L592.587 523.63L592.875 490.447L598.315 490.494L598.272 495.458C599.512 493.61 600.885 492.194 602.389 491.21C603.939 490.226 605.598 489.741 607.366 489.757ZM636.831 490.012C638.826 490.03 640.636 490.34 642.263 490.944L652.872 490.9L652.828 496L647.253 495.815C648.01 497.454 648.38 499.157 648.365 500.925L648.352 502.421C648.323 505.73 647.28 508.396 645.222 510.418C643.165 512.395 640.301 513.367 636.629 513.336C634.271 513.315 632.347 513.072 630.855 512.605C629.85 513.413 629.344 514.338 629.335 515.38L629.331 515.788C629.325 516.514 629.547 517.06 629.997 517.426C630.447 517.747 631.33 517.959 632.644 518.061L642.769 518.897C644.852 519.097 646.523 519.904 647.78 521.321C649.083 522.692 649.725 524.42 649.707 526.506L649.685 529.022C649.668 530.971 649.269 532.554 648.488 533.771C647.706 534.989 646.27 535.905 644.18 536.522C642.134 537.139 639.185 537.431 635.332 537.397C633.881 537.385 632.16 537.211 630.168 536.876C628.222 536.542 626.367 536.118 624.603 535.604L624.854 530.234C629.057 531.676 632.632 532.41 635.579 532.435C638.027 532.456 639.841 532.314 641.023 532.006C642.249 531.745 643.046 531.321 643.414 530.735C643.827 530.149 644.039 529.267 644.049 528.089L644.054 527.545C644.063 526.502 643.775 525.683 643.191 525.089C642.652 524.495 641.861 524.171 640.819 524.116L630.626 523.348C628.451 523.193 626.802 522.567 625.678 521.469C624.554 520.371 624 518.893 624.016 517.034L624.028 515.674C624.037 514.677 624.294 513.705 624.801 512.757C625.354 511.81 626.131 510.978 627.135 510.261C626.372 509.393 625.815 508.3 625.463 506.982C625.158 505.62 625.014 503.964 625.031 502.014L625.044 500.519C625.071 497.3 626.091 494.747 628.102 492.861C630.114 490.929 633.023 489.979 636.831 490.012ZM636.789 494.84C634.885 494.824 633.408 495.31 632.356 496.298C631.351 497.241 630.84 498.619 630.824 500.433L630.805 502.677C630.79 504.354 630.916 505.602 631.181 506.42C631.491 507.193 632.03 507.742 632.798 508.066C633.567 508.345 634.721 508.491 636.263 508.504C638.348 508.522 639.916 508.037 640.967 507.049C642.019 506.061 642.552 504.637 642.569 502.779L642.586 500.739C642.603 498.835 642.345 497.178 641.813 495.768C641.271 495.537 640.525 495.326 639.575 495.136C638.67 494.947 637.741 494.849 636.789 494.84ZM676.396 477.911L675.993 524.354L670.213 524.304L670.617 477.861L676.396 477.911ZM695.913 490.525C699.812 490.559 702.637 491.468 704.39 493.251C706.188 494.989 707.071 497.763 707.038 501.57L706.837 524.622L701.33 524.574L701.376 519.27C698.711 523.327 695.724 525.341 692.415 525.312C689.786 525.29 687.686 524.365 686.115 522.538C684.589 520.711 683.84 518.234 683.867 515.106L683.884 513.202C683.907 510.482 684.856 508.246 686.73 506.494C688.604 504.697 691.105 503.812 694.233 503.839C695.956 503.854 698.288 504.169 701.229 504.784L701.262 501.044C701.279 499.095 700.838 497.686 699.939 496.817C699.085 495.948 697.728 495.505 695.87 495.489C693.694 495.47 690.631 495.784 686.681 496.429L686.724 491.466C690.992 490.823 694.054 490.509 695.913 490.525ZM695.622 508.34C693.718 508.323 692.263 508.809 691.257 509.798C690.252 510.786 689.741 512.187 689.725 514.001L689.718 514.749C689.704 516.426 690.078 517.744 690.84 518.702C691.603 519.661 692.573 520.146 693.752 520.156C694.976 520.166 696.227 519.656 697.505 518.624C698.829 517.548 700.044 516.04 701.149 514.1L701.194 508.864C699.474 508.532 697.617 508.357 695.622 508.34ZM730.811 490.828C733.712 490.854 735.924 491.87 737.448 493.878C739.018 495.841 739.787 498.636 739.756 502.262L739.559 524.906L733.779 524.855L733.969 503.028C734.008 498.495 732.555 496.216 729.608 496.19C728.293 496.179 726.952 496.666 725.583 497.651C724.215 498.637 723.024 499.986 722.012 501.7L721.812 524.752L716.032 524.701L716.32 491.519L721.76 491.566L721.717 496.53C722.957 494.682 724.329 493.266 725.834 492.281C727.384 491.297 729.043 490.813 730.811 490.828ZM760.276 491.084C762.27 491.102 764.081 491.412 765.708 492.015L776.317 491.971L776.272 497.071L770.698 496.887C771.454 498.526 771.825 500.229 771.809 501.997L771.796 503.493C771.768 506.802 770.725 509.468 768.667 511.49C766.61 513.467 763.745 514.439 760.073 514.407C757.716 514.387 755.791 514.143 754.299 513.677C753.295 514.484 752.788 515.409 752.779 516.452L752.776 516.86C752.769 517.585 752.991 518.131 753.441 518.498C753.892 518.819 754.774 519.031 756.088 519.133L766.213 519.969C768.297 520.168 769.967 520.976 771.224 522.392C772.527 523.764 773.17 525.492 773.151 527.577L773.13 530.093C773.113 532.043 772.714 533.626 771.932 534.843C771.151 536.06 769.715 536.977 767.624 537.594C765.579 538.211 762.63 538.502 758.776 538.469C757.326 538.456 755.604 538.283 753.613 537.948C751.666 537.614 749.811 537.19 748.047 536.676L748.298 531.306C752.502 532.748 756.077 533.481 759.023 533.507C761.471 533.528 763.286 533.385 764.467 533.078C765.694 532.817 766.491 532.393 766.858 531.807C767.272 531.221 767.483 530.339 767.493 529.16L767.498 528.616C767.507 527.574 767.22 526.755 766.635 526.161C766.097 525.567 765.306 525.242 764.264 525.188L754.07 524.42C751.895 524.265 750.246 523.638 749.122 522.541C747.998 521.443 747.445 519.965 747.461 518.106L747.472 516.746C747.481 515.749 747.739 514.776 748.246 513.829C748.798 512.881 749.576 512.049 750.58 511.333C749.816 510.465 749.259 509.372 748.908 508.054C748.602 506.691 748.458 505.035 748.475 503.086L748.488 501.59C748.516 498.372 749.536 495.819 751.547 493.933C753.558 492.001 756.468 491.051 760.276 491.084ZM760.234 495.912C758.33 495.895 756.852 496.381 755.801 497.37C754.795 498.313 754.285 499.691 754.269 501.504L754.25 503.748C754.235 505.426 754.36 506.673 754.625 507.492C754.936 508.265 755.475 508.814 756.243 509.138C757.011 509.417 758.166 509.563 759.707 509.576C761.792 509.594 763.361 509.109 764.412 508.121C765.463 507.132 765.997 505.709 766.013 503.85L766.031 501.811C766.047 499.907 765.79 498.25 765.258 496.84C764.716 496.608 763.97 496.398 763.019 496.208C762.114 496.019 761.186 495.92 760.234 495.912ZM804.559 525.47L799.119 525.423L799.16 520.663C797.921 522.466 796.549 523.836 795.044 524.775C793.54 525.714 791.949 526.176 790.272 526.162C787.507 526.138 785.339 525.167 783.769 523.249C782.245 521.287 781.499 518.447 781.531 514.73L781.728 492.086L787.507 492.137L787.32 513.76C787.299 516.162 787.646 517.933 788.362 519.073C789.122 520.213 790.16 520.789 791.475 520.8C792.699 520.811 793.972 520.346 795.295 519.405C796.664 518.42 797.854 517.07 798.866 515.356L799.067 492.237L804.847 492.287L804.559 525.47ZM824.537 491.642C828.436 491.676 831.261 492.585 833.014 494.368C834.812 496.106 835.695 498.879 835.662 502.687L835.461 525.738L829.954 525.69L830 520.387C827.335 524.444 824.348 526.458 821.039 526.429C818.41 526.406 816.31 525.481 814.739 523.654C813.213 521.828 812.464 519.35 812.491 516.222L812.508 514.319C812.531 511.599 813.48 509.363 815.354 507.611C817.228 505.814 819.73 504.929 822.857 504.956C824.58 504.971 826.912 505.286 829.853 505.901L829.886 502.161C829.903 500.212 829.462 498.802 828.563 497.933C827.709 497.064 826.353 496.622 824.494 496.606C822.318 496.587 819.255 496.9 815.305 497.546L815.349 492.582C819.616 491.939 822.678 491.626 824.537 491.642ZM824.246 509.456C822.342 509.44 820.888 509.926 819.882 510.914C818.876 511.903 818.365 513.304 818.349 515.117L818.343 515.865C818.328 517.543 818.702 518.86 819.464 519.819C820.227 520.778 821.197 521.262 822.376 521.272C823.6 521.283 824.851 520.773 826.129 519.741C827.453 518.664 828.668 517.156 829.773 515.216L829.818 509.981C828.098 509.648 826.241 509.474 824.246 509.456ZM855.831 491.914C857.825 491.931 859.636 492.241 861.263 492.845L871.872 492.801L871.827 497.901L866.253 497.716C867.009 499.355 867.38 501.058 867.364 502.826L867.351 504.322C867.323 507.631 866.28 510.297 864.222 512.319C862.165 514.296 859.3 515.269 855.628 515.237C853.271 515.216 851.346 514.973 849.854 514.507C848.85 515.314 848.343 516.239 848.334 517.282L848.331 517.69C848.324 518.415 848.546 518.961 848.996 519.327C849.447 519.649 850.329 519.86 851.643 519.962L861.768 520.798C863.852 520.998 865.522 521.806 866.779 523.222C868.082 524.593 868.725 526.322 868.706 528.407L868.685 530.923C868.668 532.872 868.269 534.455 867.487 535.673C866.706 536.89 865.27 537.807 863.179 538.423C861.134 539.04 858.185 539.332 854.331 539.299C852.881 539.286 851.159 539.112 849.168 538.778C847.221 538.443 845.366 538.019 843.602 537.505L843.853 532.135C848.057 533.577 851.632 534.311 854.578 534.337C857.026 534.358 858.841 534.215 860.022 533.908C861.249 533.646 862.046 533.223 862.413 532.636C862.827 532.051 863.038 531.168 863.048 529.99L863.053 529.446C863.062 528.403 862.775 527.585 862.19 526.99C861.652 526.396 860.861 526.072 859.819 526.018L849.625 525.249C847.45 525.094 845.801 524.468 844.677 523.37C843.553 522.272 843 520.794 843.016 518.936L843.027 517.576C843.036 516.578 843.294 515.606 843.801 514.658C844.353 513.711 845.131 512.879 846.135 512.162C845.371 511.294 844.814 510.201 844.463 508.884C844.157 507.521 844.013 505.865 844.03 503.916L844.043 502.42C844.071 499.201 845.091 496.649 847.102 494.762C849.113 492.83 852.023 491.881 855.831 491.914ZM855.789 496.742C853.885 496.725 852.407 497.211 851.356 498.199C850.35 499.142 849.84 500.521 849.824 502.334L849.805 504.578C849.79 506.255 849.915 507.503 850.18 508.321C850.491 509.095 851.03 509.643 851.798 509.967C852.566 510.246 853.721 510.392 855.262 510.406C857.347 510.424 858.916 509.939 859.967 508.95C861.018 507.962 861.552 506.539 861.568 504.68L861.586 502.64C861.602 500.736 861.345 499.079 860.813 497.669C860.271 497.438 859.525 497.227 858.574 497.038C857.669 496.849 856.741 496.75 855.789 496.742ZM887.837 492.192C891.645 492.225 894.537 493.293 896.514 495.395C898.49 497.498 899.461 500.521 899.427 504.465L899.366 511.468L881.891 511.317L881.856 515.329C881.836 517.641 882.366 519.323 883.445 520.375C884.569 521.382 886.333 521.896 888.735 521.917C891.093 521.937 894.042 521.6 897.584 520.905L897.677 525.938C893.454 526.672 890.436 527.032 888.623 527.016C884.135 526.977 880.902 525.974 878.925 524.007C876.992 522.041 876.044 519.018 876.079 514.938L876.172 504.263C876.206 500.319 877.184 497.313 879.107 495.244C881.074 493.176 883.984 492.158 887.837 492.192ZM887.795 497.019C886.027 497.004 884.617 497.559 883.565 498.683C882.513 499.762 881.978 501.344 881.96 503.429L881.931 506.693L893.627 506.794L893.653 503.735C893.672 501.559 893.143 499.899 892.065 498.757C891.032 497.614 889.609 497.035 887.795 497.019ZM931.944 479.314C933.44 479.327 934.866 479.498 936.223 479.827L936.183 484.451C934.825 484.213 933.421 484.087 931.97 484.074C930.565 484.062 929.45 484.506 928.627 485.406C927.848 486.305 927.451 487.685 927.435 489.543L927.402 493.351L934.201 493.41L934.16 498.17L927.36 498.111L927.113 526.534L921.334 526.484L921.58 498.061L916.821 498.019L916.862 493.26L921.622 493.301L921.652 489.833C921.728 486.298 922.635 483.653 924.373 481.9C926.111 480.147 928.634 479.285 931.944 479.314ZM950.798 492.738C954.832 492.773 957.815 493.887 959.745 496.08C961.721 498.228 962.692 501.274 962.658 505.218L962.57 515.281C962.536 519.225 961.512 522.276 959.499 524.435C957.531 526.549 954.53 527.588 950.495 527.553C946.461 527.518 943.456 526.426 941.479 524.279C939.549 522.086 938.601 519.017 938.635 515.074L938.723 505.01C938.757 501.066 939.758 498.037 941.726 495.924C943.739 493.765 946.763 492.703 950.798 492.738ZM950.756 497.566C948.806 497.549 947.283 498.148 946.184 499.362C945.085 500.577 944.526 502.318 944.507 504.584L944.411 515.6C944.391 517.866 944.92 519.616 945.997 520.85C947.075 522.083 948.588 522.708 950.537 522.725C952.487 522.742 954.011 522.143 955.109 520.929C956.208 519.714 956.767 517.974 956.786 515.707L956.883 504.624C956.902 502.357 956.373 500.63 955.296 499.442C954.218 498.208 952.705 497.583 950.756 497.566ZM986.067 493.044C986.701 493.05 987.199 493.1 987.561 493.193L987.505 499.721C986.826 499.579 985.942 499.504 984.855 499.494C981.681 499.467 979.152 501.031 977.265 504.188L977.068 526.968L971.288 526.917L971.576 493.735L977.016 493.782L976.973 498.746C978.213 496.898 979.585 495.482 981.09 494.497C982.64 493.513 984.299 493.029 986.067 493.044ZM1011.31 498.5C1012.5 496.833 1013.87 495.553 1015.42 494.659C1016.97 493.766 1018.58 493.327 1020.26 493.341C1023.07 493.366 1025.24 494.382 1026.76 496.39C1028.29 498.353 1029.03 501.215 1029 504.978L1028.91 515.721C1028.87 519.846 1027.87 522.966 1025.9 525.079C1023.93 527.148 1020.91 528.164 1016.83 528.129C1012.84 528.094 1009.93 527.049 1008.09 524.993C1006.25 522.937 1005.34 519.823 1005.38 515.653L1005.68 480.77L1011.46 480.82L1011.31 498.5ZM1018.86 498.497C1017.54 498.486 1016.2 498.973 1014.83 499.958C1013.46 500.944 1012.27 502.294 1011.26 504.008L1011.15 516.383C1011.13 518.604 1011.62 520.309 1012.6 521.496C1013.64 522.684 1015.06 523.285 1016.87 523.301C1021 523.337 1023.08 521.02 1023.12 516.351L1023.21 505.743C1023.26 500.938 1021.8 498.523 1018.86 498.497ZM1048.8 493.589C1052.61 493.622 1055.5 494.69 1057.48 496.793C1059.45 498.895 1060.42 501.918 1060.39 505.862L1060.33 512.866L1042.85 512.714L1042.82 516.726C1042.8 519.038 1043.33 520.72 1044.41 521.772C1045.53 522.779 1047.3 523.293 1049.7 523.314C1052.06 523.334 1055 522.997 1058.55 522.303L1058.64 527.336C1054.42 528.07 1051.4 528.429 1049.59 528.413C1045.1 528.374 1041.87 527.372 1039.89 525.405C1037.96 523.439 1037.01 520.416 1037.04 516.336L1037.13 505.66C1037.17 501.716 1038.15 498.71 1040.07 496.641C1042.04 494.573 1044.95 493.556 1048.8 493.589ZM1048.76 498.417C1046.99 498.402 1045.58 498.956 1044.53 500.08C1043.48 501.159 1042.94 502.741 1042.92 504.826L1042.89 508.09L1054.59 508.192L1054.62 505.132C1054.63 502.956 1054.11 501.297 1053.03 500.154C1051.99 499.012 1050.57 498.433 1048.76 498.417ZM1079.21 493.853C1081.21 493.87 1083.02 494.181 1084.65 494.784L1095.25 494.74L1095.21 499.84L1089.63 499.656C1090.39 501.294 1090.76 502.998 1090.75 504.766L1090.73 506.262C1090.7 509.571 1089.66 512.237 1087.6 514.259C1085.55 516.236 1082.68 517.208 1079.01 517.176C1076.65 517.156 1074.73 516.912 1073.24 516.446C1072.23 517.253 1071.73 518.178 1071.72 519.221L1071.71 519.629C1071.71 520.354 1071.93 520.9 1072.38 521.267C1072.83 521.588 1073.71 521.8 1075.03 521.902L1085.15 522.738C1087.23 522.937 1088.9 523.745 1090.16 525.161C1091.46 526.533 1092.11 528.261 1092.09 530.346L1092.07 532.862C1092.05 534.811 1091.65 536.395 1090.87 537.612C1090.09 538.829 1088.65 539.746 1086.56 540.363C1084.52 540.98 1081.57 541.271 1077.71 541.238C1076.26 541.225 1074.54 541.052 1072.55 540.717C1070.6 540.383 1068.75 539.959 1066.98 539.445L1067.24 534.075C1071.44 535.517 1075.01 536.25 1077.96 536.276C1080.41 536.297 1082.22 536.154 1083.4 535.847C1084.63 535.586 1085.43 535.162 1085.8 534.576C1086.21 533.99 1086.42 533.108 1086.43 531.929L1086.44 531.385C1086.44 530.343 1086.16 529.524 1085.57 528.93C1085.03 528.336 1084.24 528.011 1083.2 527.957L1073.01 527.189C1070.83 527.034 1069.18 526.407 1068.06 525.309C1066.94 524.212 1066.38 522.733 1066.4 520.875L1066.41 519.515C1066.42 518.518 1066.68 517.545 1067.18 516.598C1067.74 515.65 1068.51 514.818 1069.52 514.102C1068.75 513.234 1068.2 512.141 1067.85 510.823C1067.54 509.46 1067.4 507.804 1067.41 505.855L1067.43 504.359C1067.45 501.141 1068.47 498.588 1070.48 496.701C1072.5 494.77 1075.41 493.82 1079.21 493.853ZM1079.17 498.681C1077.27 498.664 1075.79 499.15 1074.74 500.139C1073.73 501.082 1073.22 502.46 1073.21 504.273L1073.19 506.517C1073.17 508.195 1073.3 509.442 1073.56 510.261C1073.87 511.034 1074.41 511.583 1075.18 511.907C1075.95 512.185 1077.1 512.332 1078.64 512.345C1080.73 512.363 1082.3 511.878 1083.35 510.89C1084.4 509.901 1084.93 508.478 1084.95 506.619L1084.97 504.58C1084.98 502.676 1084.73 501.019 1084.2 499.609C1083.65 499.377 1082.91 499.167 1081.96 498.977C1081.05 498.788 1080.12 498.689 1079.17 498.681ZM1106.44 494.906L1106.16 528.088L1100.38 528.038L1100.66 494.855L1106.44 494.906ZM1103.64 481.485C1104.86 481.495 1105.79 481.775 1106.42 482.325C1107.09 482.875 1107.43 483.648 1107.42 484.646L1107.4 486.618C1107.39 487.615 1107.05 488.383 1106.36 488.921C1105.72 489.414 1104.79 489.655 1103.57 489.644C1102.39 489.634 1101.46 489.377 1100.78 488.872C1100.15 488.323 1099.84 487.549 1099.85 486.552L1099.87 484.58C1099.88 483.583 1100.2 482.815 1100.84 482.276C1101.53 481.738 1102.46 481.474 1103.64 481.485ZM1130.43 494.298C1133.33 494.323 1135.54 495.34 1137.07 497.348C1138.64 499.311 1139.4 502.105 1139.37 505.732L1139.18 528.375L1133.4 528.325L1133.59 506.498C1133.63 501.964 1132.17 499.685 1129.23 499.66C1127.91 499.648 1126.57 500.135 1125.2 501.121C1123.83 502.106 1122.64 503.456 1121.63 505.17L1121.43 528.221L1115.65 528.171L1115.94 494.988L1121.38 495.035L1121.33 499.999C1122.57 498.151 1123.95 496.735 1125.45 495.751C1127 494.767 1128.66 494.282 1130.43 494.298ZM1163.5 494.585C1166.4 494.61 1168.61 495.627 1170.14 497.635C1171.7 499.598 1172.47 502.392 1172.44 506.019L1172.25 528.662L1166.47 528.612L1166.66 506.785C1166.69 502.252 1165.24 499.972 1162.29 499.947C1160.98 499.935 1159.64 500.422 1158.27 501.408C1156.9 502.393 1155.71 503.743 1154.7 505.457L1154.5 528.508L1148.72 528.458L1149.01 495.275L1154.45 495.322L1154.4 500.286C1155.64 498.438 1157.02 497.022 1158.52 496.038C1160.07 495.054 1161.73 494.57 1163.5 494.585ZM1192.96 494.841C1196.77 494.874 1199.66 495.942 1201.64 498.044C1203.62 500.147 1204.59 503.17 1204.55 507.114L1204.49 514.118L1187.02 513.966L1186.98 517.978C1186.96 520.29 1187.49 521.972 1188.57 523.024C1189.69 524.031 1191.46 524.545 1193.86 524.566C1196.22 524.586 1199.17 524.249 1202.71 523.554L1202.8 528.587C1198.58 529.321 1195.56 529.681 1193.75 529.665C1189.26 529.626 1186.03 528.623 1184.05 526.657C1182.12 524.69 1181.17 521.667 1181.2 517.587L1181.3 506.912C1181.33 502.968 1182.31 499.962 1184.23 497.893C1186.2 495.825 1189.11 494.807 1192.96 494.841ZM1192.92 499.669C1191.15 499.653 1189.74 500.208 1188.69 501.332C1187.64 502.411 1187.1 503.993 1187.08 506.078L1187.06 509.342L1198.75 509.443L1198.78 506.384C1198.8 504.208 1198.27 502.548 1197.19 501.406C1196.16 500.263 1194.73 499.684 1192.92 499.669ZM1226.98 495.136C1227.61 495.142 1228.11 495.191 1228.47 495.285L1228.42 501.813C1227.74 501.671 1226.86 501.595 1225.77 501.586C1222.59 501.558 1220.06 503.123 1218.18 506.28L1217.98 529.059L1212.2 529.009L1212.49 495.826L1217.93 495.873L1217.89 500.837C1219.13 498.989 1220.5 497.573 1222 496.589C1223.55 495.605 1225.21 495.121 1226.98 495.136ZM1244.99 495.292C1246.9 495.309 1249.18 495.601 1251.85 496.168L1251.67 501.063C1249.32 500.498 1247.17 500.207 1245.22 500.191C1241.14 500.155 1239.09 501.452 1239.07 504.081L1239.06 504.693C1239.05 505.509 1239.25 506.168 1239.66 506.671C1240.11 507.173 1240.89 507.701 1242.02 508.255L1248.39 511.302C1252.23 513.149 1254.13 515.818 1254.1 519.308L1254.09 520.804C1254.01 523.932 1253.04 526.281 1251.17 527.851C1249.34 529.377 1246.46 530.122 1242.51 530.088C1240.47 530.07 1237.55 529.569 1233.75 528.584L1234.07 523.419C1237.46 524.445 1240.25 524.968 1242.42 524.987C1244.64 525.006 1246.19 524.725 1247.05 524.143C1247.92 523.516 1248.36 522.5 1248.37 521.095L1248.38 520.415C1248.39 519.327 1248.17 518.464 1247.72 517.825C1247.32 517.187 1246.62 516.637 1245.63 516.175L1239.06 513.194C1237.07 512.27 1235.61 511.169 1234.66 509.891C1233.77 508.614 1233.33 507.137 1233.34 505.46L1233.35 504.508C1233.47 501.426 1234.44 499.122 1236.27 497.597C1238.14 496.026 1241.05 495.258 1244.99 495.292Z" fill="black"/>
</svg>
