<svg width="1440" height="1024" viewBox="0 0 1440 1024" fill="none" xmlns="http://www.w3.org/2000/svg">
<rect width="1440" height="1024" fill="#6FCF97"/>
<path d="M86.405 394.434C90.9737 394.434 94.5157 395.743 97.031 398.361C99.5463 400.928 100.804 404.341 100.804 408.602C100.804 413.017 99.3667 416.507 96.492 419.074C93.6173 421.589 89.7417 422.847 84.865 422.847C78.6537 422.847 73.392 420.434 69.08 415.609L72.699 411.913C76.1897 416.02 80.2193 418.073 84.788 418.073C88.022 418.073 90.5373 417.226 92.334 415.532C94.182 413.838 95.106 411.579 95.106 408.756C95.106 405.881 94.2333 403.597 92.488 401.903C90.794 400.209 88.4327 399.362 85.404 399.362C83.5047 399.362 81.708 399.721 80.014 400.44C78.3713 401.159 76.9083 402.16 75.625 403.443L71.082 401.595L71.621 378.649H98.263V389.737H92.873V383.192H76.472L76.01 397.822C77.396 396.744 78.9873 395.923 80.784 395.358C82.632 394.742 84.5057 394.434 86.405 394.434ZM107.981 401.826H126.384V406.138H107.981V401.826ZM137.679 382.73H132.366V378.649H149.306V382.73H143.685L153.079 413.992L164.244 379.419H168.787L180.029 413.992L189.192 382.73H183.571V378.649H199.741V382.73H194.351L182.416 422H177.026L166.169 389.198L155.389 422H149.999L137.679 382.73ZM234.304 408.063H209.356C209.715 411.297 210.87 413.864 212.821 415.763C214.772 417.611 217.261 418.535 220.29 418.535C224.499 418.535 228.324 416.918 231.763 413.684L233.765 417.149C232.276 418.894 230.403 420.306 228.144 421.384C225.885 422.411 223.344 422.924 220.521 422.924C217.338 422.924 214.438 422.257 211.82 420.922C209.202 419.587 207.149 417.714 205.66 415.301C204.171 412.837 203.427 410.039 203.427 406.908C203.427 403.725 204.12 400.928 205.506 398.515C206.943 396.051 208.868 394.177 211.281 392.894C213.745 391.559 216.466 390.892 219.443 390.892C224.063 390.892 227.682 392.304 230.3 395.127C232.969 397.95 234.304 401.775 234.304 406.6V408.063ZM228.683 404.521C228.683 401.595 227.81 399.285 226.065 397.591C224.371 395.897 222.164 395.05 219.443 395.05C216.774 395.05 214.515 395.897 212.667 397.591C210.819 399.285 209.715 401.595 209.356 404.521H228.683ZM260.556 390.969C263.328 390.969 265.818 391.585 268.025 392.817C270.284 393.998 272.055 395.769 273.338 398.13C274.621 400.44 275.263 403.212 275.263 406.446C275.263 409.783 274.544 412.683 273.107 415.147C271.721 417.611 269.822 419.51 267.409 420.845C264.996 422.128 262.378 422.77 259.555 422.77C255.859 422.77 252.753 421.666 250.238 419.459V422H238.919V417.919H244.54V381.883H239.073V377.879H250.238V394.434C251.778 393.305 253.446 392.458 255.243 391.893C257.04 391.277 258.811 390.969 260.556 390.969ZM258.554 418.535C261.737 418.535 264.329 417.534 266.331 415.532C268.333 413.479 269.334 410.604 269.334 406.908C269.334 403.315 268.359 400.491 266.408 398.438C264.509 396.385 262.045 395.358 259.016 395.358C257.579 395.358 256.09 395.64 254.55 396.205C253.01 396.77 251.573 397.591 250.238 398.669V415.455C251.47 416.43 252.805 417.2 254.242 417.765C255.731 418.278 257.168 418.535 258.554 418.535ZM297.167 404.444C299.528 405.009 301.402 405.625 302.788 406.292C304.225 406.908 305.38 407.832 306.253 409.064C307.125 410.296 307.562 411.939 307.562 413.992C307.562 416.867 306.432 419.048 304.174 420.537C301.915 422.026 299.194 422.77 296.012 422.77C294.061 422.77 292.213 422.462 290.468 421.846C288.722 421.23 287.336 420.409 286.31 419.382V422H281.844V411.528H285.848L286.156 414.839C287.028 416.122 288.286 417.123 289.929 417.842C291.623 418.509 293.394 418.843 295.242 418.843C297.244 418.843 298.886 418.458 300.17 417.688C301.453 416.867 302.095 415.789 302.095 414.454C302.095 412.914 301.607 411.81 300.632 411.143C299.656 410.476 297.834 409.86 295.165 409.295L290.93 408.371C287.798 407.601 285.488 406.6 284 405.368C282.511 404.085 281.767 402.108 281.767 399.439C281.767 396.821 282.793 394.768 284.847 393.279C286.951 391.739 289.646 390.969 292.932 390.969C294.523 390.969 296.14 391.226 297.783 391.739C299.477 392.252 300.811 392.971 301.787 393.895V391.585H306.33V401.98H302.326L301.787 398.207C301.017 397.283 299.862 396.539 298.322 395.974C296.833 395.358 295.344 395.05 293.856 395.05C292.059 395.05 290.545 395.409 289.313 396.128C288.081 396.847 287.465 397.899 287.465 399.285C287.465 400.414 287.901 401.287 288.774 401.903C289.646 402.519 291.135 403.084 293.24 403.597L297.167 404.444ZM302.634 399.747L302.557 399.593L302.634 399.747ZM285.232 412.914C285.232 413.017 285.257 413.094 285.309 413.145L285.232 412.914ZM320.085 385.117C318.904 385.117 317.903 384.758 317.082 384.039C316.312 383.269 315.927 382.319 315.927 381.19C315.927 380.061 316.312 379.137 317.082 378.418C317.903 377.648 318.904 377.263 320.085 377.263C321.266 377.263 322.241 377.648 323.011 378.418C323.832 379.137 324.243 380.061 324.243 381.19C324.243 382.319 323.832 383.269 323.011 384.039C322.241 384.758 321.266 385.117 320.085 385.117ZM312.154 417.919H318.006V395.82H312.231V391.739H323.627V417.919H329.094V422H312.154V417.919ZM346.311 422C340.459 422 337.533 419.023 337.533 413.068V395.82H332.528V391.739H337.533V381.421L343.231 379.188V391.739H351.239V395.82H343.231V412.76C343.231 414.659 343.539 415.994 344.155 416.764C344.771 417.534 345.824 417.919 347.312 417.919H351.932V422H346.311ZM386.95 408.063H362.002C362.362 411.297 363.517 413.864 365.467 415.763C367.418 417.611 369.908 418.535 372.936 418.535C377.146 418.535 380.97 416.918 384.409 413.684L386.411 417.149C384.923 418.894 383.049 420.306 380.79 421.384C378.532 422.411 375.991 422.924 373.167 422.924C369.985 422.924 367.084 422.257 364.466 420.922C361.848 419.587 359.795 417.714 358.306 415.301C356.818 412.837 356.073 410.039 356.073 406.908C356.073 403.725 356.766 400.928 358.152 398.515C359.59 396.051 361.515 394.177 363.927 392.894C366.391 391.559 369.112 390.892 372.089 390.892C376.709 390.892 380.328 392.304 382.946 395.127C385.616 397.95 386.95 401.775 386.95 406.6V408.063ZM381.329 404.521C381.329 401.595 380.457 399.285 378.711 397.591C377.017 395.897 374.81 395.05 372.089 395.05C369.42 395.05 367.161 395.897 365.313 397.591C363.465 399.285 362.362 401.595 362.002 404.521H381.329ZM428.425 422C422.573 422 419.647 419.023 419.647 413.068V395.82H414.642V391.739H419.647V381.421L425.345 379.188V391.739H433.353V395.82H425.345V412.76C425.345 414.659 425.653 415.994 426.269 416.764C426.885 417.534 427.937 417.919 429.426 417.919H434.046V422H428.425ZM454.511 422.924C451.277 422.924 448.428 422.257 445.964 420.922C443.5 419.587 441.575 417.714 440.189 415.301C438.854 412.837 438.187 410.014 438.187 406.831C438.187 403.648 438.854 400.851 440.189 398.438C441.575 396.025 443.5 394.177 445.964 392.894C448.428 391.559 451.277 390.892 454.511 390.892C457.745 390.892 460.594 391.559 463.058 392.894C465.573 394.177 467.524 396.025 468.91 398.438C470.296 400.851 470.989 403.623 470.989 406.754C470.989 409.937 470.296 412.76 468.91 415.224C467.524 417.688 465.573 419.587 463.058 420.922C460.594 422.257 457.745 422.924 454.511 422.924ZM454.511 418.458C457.693 418.458 460.26 417.406 462.211 415.301C464.161 413.145 465.137 410.296 465.137 406.754C465.137 403.315 464.161 400.568 462.211 398.515C460.26 396.41 457.693 395.358 454.511 395.358C451.328 395.358 448.787 396.41 446.888 398.515C444.988 400.62 444.039 403.392 444.039 406.831C444.039 410.322 444.988 413.145 446.888 415.301C448.838 417.406 451.379 418.458 454.511 418.458ZM498.422 417.919H504.043V381.883H498.576V377.879H509.741V417.919H514.669V422H498.422V417.919ZM549.147 408.063H524.199C524.558 411.297 525.713 413.864 527.664 415.763C529.614 417.611 532.104 418.535 535.133 418.535C539.342 418.535 543.166 416.918 546.606 413.684L548.608 417.149C547.119 418.894 545.245 420.306 542.987 421.384C540.728 422.411 538.187 422.924 535.364 422.924C532.181 422.924 529.281 422.257 526.663 420.922C524.045 419.587 521.991 417.714 520.503 415.301C519.014 412.837 518.27 410.039 518.27 406.908C518.27 403.725 518.963 400.928 520.349 398.515C521.786 396.051 523.711 394.177 526.124 392.894C528.588 391.559 531.308 390.892 534.286 390.892C538.906 390.892 542.525 392.304 545.143 395.127C547.812 397.95 549.147 401.775 549.147 406.6V408.063ZM543.526 404.521C543.526 401.595 542.653 399.285 540.908 397.591C539.214 395.897 537.006 395.05 534.286 395.05C531.616 395.05 529.358 395.897 527.51 397.591C525.662 399.285 524.558 401.595 524.199 404.521H543.526ZM585.794 417.919V422H576.015L575.707 419.305C574.064 420.537 572.422 421.435 570.779 422C569.136 422.565 567.288 422.847 565.235 422.847C562.155 422.847 559.64 422 557.689 420.306C555.79 418.561 554.84 416.405 554.84 413.838C554.84 410.553 555.944 408.166 558.151 406.677C560.41 405.137 563.361 404.367 567.006 404.367C569.624 404.367 572.422 404.701 575.399 405.368V402.211C575.399 399.901 574.757 398.156 573.474 396.975C572.242 395.794 570.497 395.204 568.238 395.204C566.749 395.204 565.03 395.461 563.079 395.974C561.18 396.436 559.434 397.103 557.843 397.976L556.149 394.28C557.843 393.202 559.794 392.381 562.001 391.816C564.26 391.251 566.364 390.969 568.315 390.969C572.268 390.969 575.373 391.944 577.632 393.895C579.891 395.794 581.02 398.387 581.02 401.672V417.919H585.794ZM560.23 413.53C560.23 415.121 560.743 416.43 561.77 417.457C562.848 418.432 564.285 418.92 566.082 418.92C569.111 418.92 572.216 417.816 575.399 415.609V408.679C572.678 408.063 570.009 407.755 567.391 407.755C565.338 407.755 563.618 408.217 562.232 409.141C560.897 410.014 560.23 411.477 560.23 413.53ZM608.898 391.354C610.849 391.354 612.902 391.867 615.058 392.894L613.672 398.053C611.927 396.924 610.156 396.359 608.359 396.359C606.306 396.359 604.586 397.206 603.2 398.9C601.865 400.543 601.198 402.827 601.198 405.753L601.121 417.919H606.511V422H589.648V417.919H595.5V395.82H589.648V391.739H601.121V397.283C602.764 393.33 605.356 391.354 608.898 391.354ZM656.31 417.919V422H640.063V417.919H645.068V402.134C645.068 400.029 644.555 398.387 643.528 397.206C642.502 396.025 641.09 395.435 639.293 395.435C637.805 395.435 636.29 395.717 634.75 396.282C633.262 396.795 631.619 397.591 629.822 398.669V417.919H635.289V422H618.349V417.919H624.201V395.82H618.349V391.739H629.822V394.742C633.826 392.227 637.471 390.969 640.756 390.969C643.631 390.969 645.992 391.867 647.84 393.664C649.74 395.409 650.689 397.873 650.689 401.056V417.919H656.31ZM702.533 390.969C705.305 390.969 707.794 391.585 710.002 392.817C712.26 393.998 714.031 395.769 715.315 398.13C716.598 400.44 717.24 403.212 717.24 406.446C717.24 409.783 716.521 412.683 715.084 415.147C713.698 417.611 711.798 419.51 709.386 420.845C707.024 422.128 704.432 422.77 701.609 422.77C699.812 422.77 698.092 422.488 696.45 421.923C694.858 421.358 693.549 420.614 692.523 419.69L692.446 429.931H698.375V434.012H681.358V429.931H686.825V395.82H681.512V391.739H692.138L692.215 394.588C693.703 393.407 695.32 392.509 697.066 391.893C698.862 391.277 700.685 390.969 702.533 390.969ZM700.608 418.535C703.79 418.535 706.357 417.534 708.308 415.532C710.31 413.479 711.311 410.604 711.311 406.908C711.311 403.315 710.335 400.491 708.385 398.438C706.485 396.385 704.021 395.358 700.993 395.358C699.761 395.358 698.323 395.615 696.681 396.128C695.089 396.641 693.678 397.411 692.446 398.438L692.523 415.609C693.703 416.533 694.987 417.252 696.373 417.765C697.81 418.278 699.222 418.535 700.608 418.535ZM741.242 391.354C743.193 391.354 745.246 391.867 747.402 392.894L746.016 398.053C744.271 396.924 742.5 396.359 740.703 396.359C738.65 396.359 736.93 397.206 735.544 398.9C734.209 400.543 733.542 402.827 733.542 405.753L733.465 417.919H738.855V422H721.992V417.919H727.844V395.82H721.992V391.739H733.465V397.283C735.108 393.33 737.7 391.354 741.242 391.354ZM767.248 422.924C764.014 422.924 761.165 422.257 758.701 420.922C756.237 419.587 754.312 417.714 752.926 415.301C751.591 412.837 750.924 410.014 750.924 406.831C750.924 403.648 751.591 400.851 752.926 398.438C754.312 396.025 756.237 394.177 758.701 392.894C761.165 391.559 764.014 390.892 767.248 390.892C770.482 390.892 773.331 391.559 775.795 392.894C778.31 394.177 780.261 396.025 781.647 398.438C783.033 400.851 783.726 403.623 783.726 406.754C783.726 409.937 783.033 412.76 781.647 415.224C780.261 417.688 778.31 419.587 775.795 420.922C773.331 422.257 770.482 422.924 767.248 422.924ZM767.248 418.458C770.431 418.458 772.997 417.406 774.948 415.301C776.899 413.145 777.874 410.296 777.874 406.754C777.874 403.315 776.899 400.568 774.948 398.515C772.997 396.41 770.431 395.358 767.248 395.358C764.065 395.358 761.524 396.41 759.625 398.515C757.726 400.62 756.776 403.392 756.776 406.831C756.776 410.322 757.726 413.145 759.625 415.301C761.576 417.406 764.117 418.458 767.248 418.458ZM824.35 391.739V395.82H819.268V422.693C819.268 427.364 817.856 430.829 815.033 433.088C812.21 435.347 808.437 436.476 803.714 436.476C800.121 436.476 796.322 435.86 792.318 434.628L793.473 430.162C797.374 431.343 800.737 431.933 803.56 431.933C806.743 431.933 809.207 431.189 810.952 429.7C812.697 428.263 813.57 426.055 813.57 423.078V418.92C812.133 419.998 810.516 420.819 808.719 421.384C806.974 421.949 805.228 422.231 803.483 422.231C800.608 422.231 797.99 421.615 795.629 420.383C793.268 419.1 791.394 417.277 790.008 414.916C788.673 412.555 788.006 409.783 788.006 406.6C788.006 403.315 788.673 400.517 790.008 398.207C791.343 395.846 793.165 394.075 795.475 392.894C797.836 391.662 800.454 391.046 803.329 391.046C805.074 391.046 806.871 391.354 808.719 391.97C810.567 392.535 812.158 393.356 813.493 394.434V391.739H824.35ZM793.935 406.985C793.935 410.424 794.936 413.119 796.938 415.07C798.94 417.021 801.507 417.996 804.638 417.996C806.127 417.996 807.641 417.739 809.181 417.226C810.772 416.713 812.235 415.968 813.57 414.993L813.493 398.361C812.004 397.386 810.413 396.616 808.719 396.051C807.076 395.486 805.511 395.204 804.022 395.204C800.993 395.204 798.555 396.256 796.707 398.361C794.859 400.414 793.935 403.289 793.935 406.985ZM847.042 391.354C848.992 391.354 851.046 391.867 853.202 392.894L851.816 398.053C850.07 396.924 848.299 396.359 846.503 396.359C844.449 396.359 842.73 397.206 841.344 398.9C840.009 400.543 839.342 402.827 839.342 405.753L839.265 417.919H844.655V422H827.792V417.919H833.644V395.82H827.792V391.739H839.265V397.283C840.907 393.33 843.5 391.354 847.042 391.354ZM888.756 417.919V422H878.977L878.669 419.305C877.026 420.537 875.383 421.435 873.741 422C872.098 422.565 870.25 422.847 868.197 422.847C865.117 422.847 862.601 422 860.651 420.306C858.751 418.561 857.802 416.405 857.802 413.838C857.802 410.553 858.905 408.166 861.113 406.677C863.371 405.137 866.323 404.367 869.968 404.367C872.586 404.367 875.383 404.701 878.361 405.368V402.211C878.361 399.901 877.719 398.156 876.436 396.975C875.204 395.794 873.458 395.204 871.2 395.204C869.711 395.204 867.991 395.461 866.041 395.974C864.141 396.436 862.396 397.103 860.805 397.976L859.111 394.28C860.805 393.202 862.755 392.381 864.963 391.816C867.221 391.251 869.326 390.969 871.277 390.969C875.229 390.969 878.335 391.944 880.594 393.895C882.852 395.794 883.982 398.387 883.982 401.672V417.919H888.756ZM863.192 413.53C863.192 415.121 863.705 416.43 864.732 417.457C865.81 418.432 867.247 418.92 869.044 418.92C872.072 418.92 875.178 417.816 878.361 415.609V408.679C875.64 408.063 872.971 407.755 870.353 407.755C868.299 407.755 866.58 408.217 865.194 409.141C863.859 410.014 863.192 411.477 863.192 413.53ZM950.36 417.919V422H934.113V417.919H939.195V402.134C939.195 400.029 938.682 398.387 937.655 397.206C936.628 396.025 935.217 395.435 933.42 395.435C930.289 395.435 927.003 396.59 923.564 398.9C923.718 399.67 923.795 400.44 923.795 401.21V417.919H929.339V422H913.092V417.919H918.174V402.134C918.174 400.029 917.661 398.387 916.634 397.206C915.607 396.025 914.196 395.435 912.399 395.435C909.781 395.435 906.675 396.462 903.082 398.515V417.919H908.549V422H891.609V417.919H897.461V395.82H891.609V391.739H903.082V394.665C906.983 392.201 910.577 390.969 913.862 390.969C915.864 390.969 917.609 391.405 919.098 392.278C920.587 393.099 921.716 394.254 922.486 395.743C924.745 394.203 926.849 393.022 928.8 392.201C930.751 391.38 932.778 390.969 934.883 390.969C937.758 390.969 940.119 391.867 941.967 393.664C943.866 395.409 944.816 397.873 944.816 401.056V417.919H950.36ZM1010.97 417.919V422H994.72V417.919H999.802V402.134C999.802 400.029 999.289 398.387 998.262 397.206C997.236 396.025 995.824 395.435 994.027 395.435C990.896 395.435 987.611 396.59 984.171 398.9C984.325 399.67 984.402 400.44 984.402 401.21V417.919H989.946V422H973.699V417.919H978.781V402.134C978.781 400.029 978.268 398.387 977.241 397.206C976.215 396.025 974.803 395.435 973.006 395.435C970.388 395.435 967.283 396.462 963.689 398.515V417.919H969.156V422H952.216V417.919H958.068V395.82H952.216V391.739H963.689V394.665C967.591 392.201 971.184 390.969 974.469 390.969C976.471 390.969 978.217 391.405 979.705 392.278C981.194 393.099 982.323 394.254 983.093 395.743C985.352 394.203 987.457 393.022 989.407 392.201C991.358 391.38 993.386 390.969 995.49 390.969C998.365 390.969 1000.73 391.867 1002.57 393.664C1004.47 395.409 1005.42 397.873 1005.42 401.056V417.919H1010.97ZM1020.75 385.117C1019.57 385.117 1018.57 384.758 1017.75 384.039C1016.98 383.269 1016.6 382.319 1016.6 381.19C1016.6 380.061 1016.98 379.137 1017.75 378.418C1018.57 377.648 1019.57 377.263 1020.75 377.263C1021.94 377.263 1022.91 377.648 1023.68 378.418C1024.5 379.137 1024.91 380.061 1024.91 381.19C1024.91 382.319 1024.5 383.269 1023.68 384.039C1022.91 384.758 1021.94 385.117 1020.75 385.117ZM1012.82 417.919H1018.68V395.82H1012.9V391.739H1024.3V417.919H1029.76V422H1012.82V417.919ZM1071.31 417.919V422H1055.07V417.919H1060.07V402.134C1060.07 400.029 1059.56 398.387 1058.53 397.206C1057.5 396.025 1056.09 395.435 1054.3 395.435C1052.81 395.435 1051.29 395.717 1049.75 396.282C1048.26 396.795 1046.62 397.591 1044.83 398.669V417.919H1050.29V422H1033.35V417.919H1039.2V395.82H1033.35V391.739H1044.83V394.742C1048.83 392.227 1052.47 390.969 1055.76 390.969C1058.63 390.969 1061 391.867 1062.84 393.664C1064.74 395.409 1065.69 397.873 1065.69 401.056V417.919H1071.31ZM1110.17 391.739V395.82H1105.09V422.693C1105.09 427.364 1103.67 430.829 1100.85 433.088C1098.03 435.347 1094.25 436.476 1089.53 436.476C1085.94 436.476 1082.14 435.86 1078.14 434.628L1079.29 430.162C1083.19 431.343 1086.55 431.933 1089.38 431.933C1092.56 431.933 1095.02 431.189 1096.77 429.7C1098.51 428.263 1099.39 426.055 1099.39 423.078V418.92C1097.95 419.998 1096.33 420.819 1094.54 421.384C1092.79 421.949 1091.05 422.231 1089.3 422.231C1086.43 422.231 1083.81 421.615 1081.45 420.383C1079.09 419.1 1077.21 417.277 1075.83 414.916C1074.49 412.555 1073.82 409.783 1073.82 406.6C1073.82 403.315 1074.49 400.517 1075.83 398.207C1077.16 395.846 1078.98 394.075 1081.29 392.894C1083.65 391.662 1086.27 391.046 1089.15 391.046C1090.89 391.046 1092.69 391.354 1094.54 391.97C1096.38 392.535 1097.98 393.356 1099.31 394.434V391.739H1110.17ZM1079.75 406.985C1079.75 410.424 1080.75 413.119 1082.76 415.07C1084.76 417.021 1087.32 417.996 1090.46 417.996C1091.94 417.996 1093.46 417.739 1095 417.226C1096.59 416.713 1098.05 415.968 1099.39 414.993L1099.31 398.361C1097.82 397.386 1096.23 396.616 1094.54 396.051C1092.89 395.486 1091.33 395.204 1089.84 395.204C1086.81 395.204 1084.37 396.256 1082.52 398.361C1080.68 400.414 1079.75 403.289 1079.75 406.985ZM1137.53 417.919H1143.54V395.82H1137.61V391.739H1143.54V385.271C1143.54 382.396 1144.28 380.163 1145.77 378.572C1147.31 376.929 1149.6 376.108 1152.62 376.108C1154.93 376.108 1156.86 376.673 1158.4 377.802C1159.99 378.931 1160.86 380.728 1161.02 383.192L1156.63 384.424C1156.37 382.987 1155.96 381.909 1155.4 381.19C1154.88 380.471 1154.04 380.112 1152.86 380.112C1150.44 380.112 1149.24 381.857 1149.24 385.348V391.739H1158.48V395.82H1149.24V417.919H1157.01V422H1137.53V417.919ZM1176.99 422.924C1173.75 422.924 1170.9 422.257 1168.44 420.922C1165.98 419.587 1164.05 417.714 1162.67 415.301C1161.33 412.837 1160.66 410.014 1160.66 406.831C1160.66 403.648 1161.33 400.851 1162.67 398.438C1164.05 396.025 1165.98 394.177 1168.44 392.894C1170.9 391.559 1173.75 390.892 1176.99 390.892C1180.22 390.892 1183.07 391.559 1185.53 392.894C1188.05 394.177 1190 396.025 1191.39 398.438C1192.77 400.851 1193.47 403.623 1193.47 406.754C1193.47 409.937 1192.77 412.76 1191.39 415.224C1190 417.688 1188.05 419.587 1185.53 420.922C1183.07 422.257 1180.22 422.924 1176.99 422.924ZM1176.99 418.458C1180.17 418.458 1182.74 417.406 1184.69 415.301C1186.64 413.145 1187.61 410.296 1187.61 406.754C1187.61 403.315 1186.64 400.568 1184.69 398.515C1182.74 396.41 1180.17 395.358 1176.99 395.358C1173.8 395.358 1171.26 396.41 1169.36 398.515C1167.46 400.62 1166.52 403.392 1166.52 406.831C1166.52 410.322 1167.46 413.145 1169.36 415.301C1171.31 417.406 1173.86 418.458 1176.99 418.458ZM1217.3 391.354C1219.25 391.354 1221.31 391.867 1223.46 392.894L1222.08 398.053C1220.33 396.924 1218.56 396.359 1216.76 396.359C1214.71 396.359 1212.99 397.206 1211.61 398.9C1210.27 400.543 1209.6 402.827 1209.6 405.753L1209.53 417.919H1214.92V422H1198.05V417.919H1203.91V395.82H1198.05V391.739H1209.53V397.283C1211.17 393.33 1213.76 391.354 1217.3 391.354ZM1251.68 417.919H1257.68V395.82H1251.76V391.739H1257.68V385.271C1257.68 382.396 1258.43 380.163 1259.92 378.572C1261.46 376.929 1263.74 376.108 1266.77 376.108C1269.08 376.108 1271.01 376.673 1272.55 377.802C1274.14 378.931 1275.01 380.728 1275.16 383.192L1270.77 384.424C1270.52 382.987 1270.11 381.909 1269.54 381.19C1269.03 380.471 1268.18 380.112 1267 380.112C1264.59 380.112 1263.38 381.857 1263.38 385.348V391.739H1272.62V395.82H1263.38V417.919H1271.16V422H1251.68V417.919ZM1294.83 391.354C1296.78 391.354 1298.83 391.867 1300.99 392.894L1299.6 398.053C1297.86 396.924 1296.09 396.359 1294.29 396.359C1292.24 396.359 1290.52 397.206 1289.13 398.9C1287.8 400.543 1287.13 402.827 1287.13 405.753L1287.05 417.919H1292.44V422H1275.58V417.919H1281.43V395.82H1275.58V391.739H1287.05V397.283C1288.7 393.33 1291.29 391.354 1294.83 391.354ZM1335.39 408.063H1310.44C1310.8 411.297 1311.96 413.864 1313.91 415.763C1315.86 417.611 1318.35 418.535 1321.37 418.535C1325.58 418.535 1329.41 416.918 1332.85 413.684L1334.85 417.149C1333.36 418.894 1331.49 420.306 1329.23 421.384C1326.97 422.411 1324.43 422.924 1321.61 422.924C1318.42 422.924 1315.52 422.257 1312.9 420.922C1310.29 419.587 1308.23 417.714 1306.74 415.301C1305.26 412.837 1304.51 410.039 1304.51 406.908C1304.51 403.725 1305.2 400.928 1306.59 398.515C1308.03 396.051 1309.95 394.177 1312.37 392.894C1314.83 391.559 1317.55 390.892 1320.53 390.892C1325.15 390.892 1328.77 392.304 1331.38 395.127C1334.05 397.95 1335.39 401.775 1335.39 406.6V408.063ZM1329.77 404.521C1329.77 401.595 1328.9 399.285 1327.15 397.591C1325.46 395.897 1323.25 395.05 1320.53 395.05C1317.86 395.05 1315.6 395.897 1313.75 397.591C1311.9 399.285 1310.8 401.595 1310.44 404.521H1329.77ZM1370.88 408.063H1345.93C1346.29 411.297 1347.45 413.864 1349.4 415.763C1351.35 417.611 1353.84 418.535 1356.87 418.535C1361.08 418.535 1364.9 416.918 1368.34 413.684L1370.34 417.149C1368.85 418.894 1366.98 420.306 1364.72 421.384C1362.46 422.411 1359.92 422.924 1357.1 422.924C1353.92 422.924 1351.02 422.257 1348.4 420.922C1345.78 419.587 1343.73 417.714 1342.24 415.301C1340.75 412.837 1340 410.039 1340 406.908C1340 403.725 1340.7 400.928 1342.08 398.515C1343.52 396.051 1345.45 394.177 1347.86 392.894C1350.32 391.559 1353.04 390.892 1356.02 390.892C1360.64 390.892 1364.26 392.304 1366.88 395.127C1369.55 397.95 1370.88 401.775 1370.88 406.6V408.063ZM1365.26 404.521C1365.26 401.595 1364.39 399.285 1362.64 397.591C1360.95 395.897 1358.74 395.05 1356.02 395.05C1353.35 395.05 1351.09 395.897 1349.24 397.591C1347.4 399.285 1346.29 401.595 1345.93 404.521H1365.26Z" fill="black"/>
<path d="M412.836 498.48H409.248V495.724H420.688V498.48H416.892L423.236 519.592L430.776 496.244H433.844L441.436 519.592L447.624 498.48H443.828V495.724H454.748V498.48H451.108L443.048 525H439.408L432.076 502.848L424.796 525H421.156L412.836 498.48ZM470.758 504.304C472.075 504.304 473.462 504.651 474.918 505.344L473.982 508.828C472.803 508.065 471.607 507.684 470.394 507.684C469.007 507.684 467.846 508.256 466.91 509.4C466.008 510.509 465.558 512.052 465.558 514.028L465.506 522.244H469.146V525H457.758V522.244H461.71V507.32H457.758V504.564H465.506V508.308C466.615 505.639 468.366 504.304 470.758 504.304ZM482.496 500.092C481.699 500.092 481.023 499.849 480.468 499.364C479.948 498.844 479.688 498.203 479.688 497.44C479.688 496.677 479.948 496.053 480.468 495.568C481.023 495.048 481.699 494.788 482.496 494.788C483.293 494.788 483.952 495.048 484.472 495.568C485.027 496.053 485.304 496.677 485.304 497.44C485.304 498.203 485.027 498.844 484.472 499.364C483.952 499.849 483.293 500.092 482.496 500.092ZM477.14 522.244H481.092V507.32H477.192V504.564H484.888V522.244H488.58V525H477.14V522.244ZM500.207 525C496.255 525 494.279 522.989 494.279 518.968V507.32H490.899V504.564H494.279V497.596L498.127 496.088V504.564H503.535V507.32H498.127V518.76C498.127 520.043 498.335 520.944 498.751 521.464C499.167 521.984 499.878 522.244 500.883 522.244H504.003V525H500.207ZM515.848 525C511.896 525 509.92 522.989 509.92 518.968V507.32H506.54V504.564H509.92V497.596L513.768 496.088V504.564H519.176V507.32H513.768V518.76C513.768 520.043 513.976 520.944 514.392 521.464C514.808 521.984 515.519 522.244 516.524 522.244H519.644V525H515.848ZM543.293 515.588H526.445C526.687 517.772 527.467 519.505 528.785 520.788C530.102 522.036 531.783 522.66 533.829 522.66C536.671 522.66 539.254 521.568 541.577 519.384L542.929 521.724C541.923 522.903 540.658 523.856 539.133 524.584C537.607 525.277 535.891 525.624 533.985 525.624C531.835 525.624 529.877 525.173 528.109 524.272C526.341 523.371 524.954 522.105 523.949 520.476C522.943 518.812 522.441 516.923 522.441 514.808C522.441 512.659 522.909 510.769 523.845 509.14C524.815 507.476 526.115 506.211 527.745 505.344C529.409 504.443 531.246 503.992 533.257 503.992C536.377 503.992 538.821 504.945 540.589 506.852C542.391 508.759 543.293 511.341 543.293 514.6V515.588ZM539.497 513.196C539.497 511.22 538.907 509.66 537.729 508.516C536.585 507.372 535.094 506.8 533.257 506.8C531.454 506.8 529.929 507.372 528.681 508.516C527.433 509.66 526.687 511.22 526.445 513.196H539.497ZM571.889 522.244V525H560.917V522.244H564.297V511.584C564.297 510.163 563.951 509.053 563.257 508.256C562.564 507.459 561.611 507.06 560.397 507.06C559.392 507.06 558.369 507.251 557.329 507.632C556.324 507.979 555.215 508.516 554.001 509.244V522.244H557.693V525H546.253V522.244H550.205V507.32H546.253V504.564H554.001V506.592C556.705 504.893 559.167 504.044 561.385 504.044C563.327 504.044 564.921 504.651 566.169 505.864C567.452 507.043 568.093 508.707 568.093 510.856V522.244H571.889ZM603.728 504.044C605.6 504.044 607.282 504.46 608.772 505.292C610.298 506.089 611.494 507.285 612.36 508.88C613.227 510.44 613.66 512.312 613.66 514.496C613.66 516.749 613.175 518.708 612.204 520.372C611.268 522.036 609.986 523.319 608.356 524.22C606.727 525.087 604.959 525.52 603.052 525.52C600.556 525.52 598.459 524.775 596.76 523.284V525H589.116V522.244H592.912V497.908H589.22V495.204H596.76V506.384C597.8 505.621 598.927 505.049 600.14 504.668C601.354 504.252 602.55 504.044 603.728 504.044ZM602.376 522.66C604.526 522.66 606.276 521.984 607.628 520.632C608.98 519.245 609.656 517.304 609.656 514.808C609.656 512.381 608.998 510.475 607.68 509.088C606.398 507.701 604.734 507.008 602.688 507.008C601.718 507.008 600.712 507.199 599.672 507.58C598.632 507.961 597.662 508.516 596.76 509.244V520.58C597.592 521.239 598.494 521.759 599.464 522.14C600.47 522.487 601.44 522.66 602.376 522.66ZM620.236 530.148H622.576C623.547 530.148 624.292 530.079 624.812 529.94C625.332 529.801 625.783 529.489 626.164 529.004C626.58 528.519 626.962 527.756 627.308 526.716L628.4 523.7H626.788L619.196 507.32H615.4V504.564H626.112V507.32H623.096L629.232 521.204L634.692 507.32H631.156V504.564H641.816V507.32H638.488L630.896 526.196C630.134 528.172 629.492 529.593 628.972 530.46C628.487 531.361 627.776 532.055 626.84 532.54C625.904 533.025 624.587 533.268 622.888 533.268H620.236V530.148ZM680.725 522.244V525H674.121L673.913 523.18C672.804 524.012 671.694 524.619 670.585 525C669.476 525.381 668.228 525.572 666.841 525.572C664.761 525.572 663.062 525 661.745 523.856C660.462 522.677 659.821 521.221 659.821 519.488C659.821 517.269 660.566 515.657 662.057 514.652C663.582 513.612 665.576 513.092 668.037 513.092C669.805 513.092 671.694 513.317 673.705 513.768V511.636C673.705 510.076 673.272 508.897 672.405 508.1C671.573 507.303 670.394 506.904 668.869 506.904C667.864 506.904 666.702 507.077 665.385 507.424C664.102 507.736 662.924 508.187 661.849 508.776L660.705 506.28C661.849 505.552 663.166 504.997 664.657 504.616C666.182 504.235 667.604 504.044 668.921 504.044C671.59 504.044 673.688 504.703 675.213 506.02C676.738 507.303 677.501 509.053 677.501 511.272V522.244H680.725ZM663.461 519.28C663.461 520.355 663.808 521.239 664.501 521.932C665.229 522.591 666.2 522.92 667.413 522.92C669.458 522.92 671.556 522.175 673.705 520.684V516.004C671.868 515.588 670.065 515.38 668.297 515.38C666.91 515.38 665.749 515.692 664.813 516.316C663.912 516.905 663.461 517.893 663.461 519.28ZM697.42 504.044C699.292 504.044 700.973 504.46 702.464 505.292C703.989 506.089 705.185 507.285 706.052 508.88C706.918 510.44 707.352 512.312 707.352 514.496C707.352 516.749 706.866 518.708 705.896 520.372C704.96 522.036 703.677 523.319 702.048 524.22C700.418 525.087 698.65 525.52 696.744 525.52C694.248 525.52 692.15 524.775 690.452 523.284V525H682.808V522.244H686.604V497.908H682.912V495.204H690.452V506.384C691.492 505.621 692.618 505.049 693.832 504.668C695.045 504.252 696.241 504.044 697.42 504.044ZM696.068 522.66C698.217 522.66 699.968 521.984 701.32 520.632C702.672 519.245 703.348 517.304 703.348 514.808C703.348 512.381 702.689 510.475 701.372 509.088C700.089 507.701 698.425 507.008 696.38 507.008C695.409 507.008 694.404 507.199 693.364 507.58C692.324 507.961 691.353 508.516 690.452 509.244V520.58C691.284 521.239 692.185 521.759 693.156 522.14C694.161 522.487 695.132 522.66 696.068 522.66ZM734.156 522.244V525H727.084V523.544C725.177 524.896 723.01 525.572 720.584 525.572C718.677 525.572 716.926 525.139 715.332 524.272C713.737 523.405 712.472 522.157 711.536 520.528C710.6 518.864 710.132 516.94 710.132 514.756C710.132 512.537 710.582 510.613 711.484 508.984C712.385 507.355 713.598 506.124 715.124 505.292C716.649 504.46 718.33 504.044 720.168 504.044C721.346 504.044 722.542 504.235 723.756 504.616C724.969 504.963 726.078 505.483 727.084 506.176V497.908H723.444V495.204H730.932V522.244H734.156ZM714.136 515.068C714.136 517.425 714.812 519.28 716.164 520.632C717.55 521.984 719.301 522.66 721.416 522.66C723.392 522.66 725.281 522.036 727.084 520.788V508.932C726.113 508.308 725.09 507.823 724.016 507.476C722.941 507.129 721.918 506.956 720.948 506.956C718.902 506.956 717.256 507.667 716.008 509.088C714.76 510.509 714.136 512.503 714.136 515.068ZM757.488 515.588H740.64C740.883 517.772 741.663 519.505 742.98 520.788C744.297 522.036 745.979 522.66 748.024 522.66C750.867 522.66 753.449 521.568 755.772 519.384L757.124 521.724C756.119 522.903 754.853 523.856 753.328 524.584C751.803 525.277 750.087 525.624 748.18 525.624C746.031 525.624 744.072 525.173 742.304 524.272C740.536 523.371 739.149 522.105 738.144 520.476C737.139 518.812 736.636 516.923 736.636 514.808C736.636 512.659 737.104 510.769 738.04 509.14C739.011 507.476 740.311 506.211 741.94 505.344C743.604 504.443 745.441 503.992 747.452 503.992C750.572 503.992 753.016 504.945 754.784 506.852C756.587 508.759 757.488 511.341 757.488 514.6V515.588ZM753.692 513.196C753.692 511.22 753.103 509.66 751.924 508.516C750.78 507.372 749.289 506.8 747.452 506.8C745.649 506.8 744.124 507.372 742.876 508.516C741.628 509.66 740.883 511.22 740.64 513.196H753.692ZM774.125 504.304C775.442 504.304 776.829 504.651 778.285 505.344L777.349 508.828C776.17 508.065 774.974 507.684 773.761 507.684C772.374 507.684 771.213 508.256 770.277 509.4C769.375 510.509 768.925 512.052 768.925 514.028L768.873 522.244H772.513V525H761.125V522.244H765.077V507.32H761.125V504.564H768.873V508.308C769.982 505.639 771.733 504.304 774.125 504.304ZM794.183 504.304C795.501 504.304 796.887 504.651 798.343 505.344L797.407 508.828C796.229 508.065 795.033 507.684 793.819 507.684C792.433 507.684 791.271 508.256 790.335 509.4C789.434 510.509 788.983 512.052 788.983 514.028L788.931 522.244H792.571V525H781.183V522.244H785.135V507.32H781.183V504.564H788.931V508.308C790.041 505.639 791.791 504.304 794.183 504.304ZM822.354 522.244V525H815.75L815.542 523.18C814.433 524.012 813.323 524.619 812.214 525C811.105 525.381 809.857 525.572 808.47 525.572C806.39 525.572 804.691 525 803.374 523.856C802.091 522.677 801.45 521.221 801.45 519.488C801.45 517.269 802.195 515.657 803.686 514.652C805.211 513.612 807.205 513.092 809.666 513.092C811.434 513.092 813.323 513.317 815.334 513.768V511.636C815.334 510.076 814.901 508.897 814.034 508.1C813.202 507.303 812.023 506.904 810.498 506.904C809.493 506.904 808.331 507.077 807.014 507.424C805.731 507.736 804.553 508.187 803.478 508.776L802.334 506.28C803.478 505.552 804.795 504.997 806.286 504.616C807.811 504.235 809.233 504.044 810.55 504.044C813.219 504.044 815.317 504.703 816.842 506.02C818.367 507.303 819.13 509.053 819.13 511.272V522.244H822.354ZM805.09 519.28C805.09 520.355 805.437 521.239 806.13 521.932C806.858 522.591 807.829 522.92 809.042 522.92C811.087 522.92 813.185 522.175 815.334 520.684V516.004C813.497 515.588 811.694 515.38 809.926 515.38C808.539 515.38 807.378 515.692 806.442 516.316C805.541 516.905 805.09 517.893 805.09 519.28ZM849.605 522.244V525H838.633V522.244H842.013V511.584C842.013 510.163 841.666 509.053 840.973 508.256C840.314 507.459 839.378 507.06 838.165 507.06C836.085 507.06 833.831 507.857 831.405 509.452V522.244H834.733V525H823.761V522.244H827.557V497.908H823.813V495.204H831.405V506.852C834.213 504.98 836.778 504.044 839.101 504.044C841.042 504.044 842.654 504.651 843.937 505.864C845.219 507.043 845.861 508.707 845.861 510.856V522.244H849.605ZM856.754 500.092C855.957 500.092 855.281 499.849 854.726 499.364C854.206 498.844 853.946 498.203 853.946 497.44C853.946 496.677 854.206 496.053 854.726 495.568C855.281 495.048 855.957 494.788 856.754 494.788C857.551 494.788 858.21 495.048 858.73 495.568C859.285 496.053 859.562 496.677 859.562 497.44C859.562 498.203 859.285 498.844 858.73 499.364C858.21 499.849 857.551 500.092 856.754 500.092ZM851.398 522.244H855.35V507.32H851.45V504.564H859.146V522.244H862.838V525H851.398V522.244ZM904.937 522.244V525H893.965V522.244H897.397V511.584C897.397 510.163 897.051 509.053 896.357 508.256C895.664 507.459 894.711 507.06 893.497 507.06C891.383 507.06 889.164 507.84 886.841 509.4C886.945 509.92 886.997 510.44 886.997 510.96V522.244H890.741V525H879.769V522.244H883.201V511.584C883.201 510.163 882.855 509.053 882.161 508.256C881.468 507.459 880.515 507.06 879.301 507.06C877.533 507.06 875.436 507.753 873.009 509.14V522.244H876.701V525H865.261V522.244H869.213V507.32H865.261V504.564H873.009V506.54C875.644 504.876 878.071 504.044 880.289 504.044C881.641 504.044 882.82 504.339 883.825 504.928C884.831 505.483 885.593 506.263 886.113 507.268C887.639 506.228 889.06 505.431 890.377 504.876C891.695 504.321 893.064 504.044 894.485 504.044C896.427 504.044 898.021 504.651 899.269 505.864C900.552 507.043 901.193 508.707 901.193 510.856V522.244H904.937ZM943.823 522.244V525H937.219L937.011 523.18C935.901 524.012 934.792 524.619 933.683 525C932.573 525.381 931.325 525.572 929.939 525.572C927.859 525.572 926.16 525 924.843 523.856C923.56 522.677 922.919 521.221 922.919 519.488C922.919 517.269 923.664 515.657 925.155 514.652C926.68 513.612 928.673 513.092 931.135 513.092C932.903 513.092 934.792 513.317 936.803 513.768V511.636C936.803 510.076 936.369 508.897 935.503 508.1C934.671 507.303 933.492 506.904 931.967 506.904C930.961 506.904 929.8 507.077 928.483 507.424C927.2 507.736 926.021 508.187 924.947 508.776L923.803 506.28C924.947 505.552 926.264 504.997 927.755 504.616C929.28 504.235 930.701 504.044 932.019 504.044C934.688 504.044 936.785 504.703 938.311 506.02C939.836 507.303 940.599 509.053 940.599 511.272V522.244H943.823ZM926.559 519.28C926.559 520.355 926.905 521.239 927.599 521.932C928.327 522.591 929.297 522.92 930.511 522.92C932.556 522.92 934.653 522.175 936.803 520.684V516.004C934.965 515.588 933.163 515.38 931.395 515.38C930.008 515.38 928.847 515.692 927.911 516.316C927.009 516.905 926.559 517.893 926.559 519.28ZM946.009 522.244H949.805V497.908H946.113V495.204H953.653V522.244H956.981V525H946.009V522.244ZM970.437 525.624C968.253 525.624 966.329 525.173 964.665 524.272C963.001 523.371 961.701 522.105 960.765 520.476C959.864 518.812 959.413 516.905 959.413 514.756C959.413 512.607 959.864 510.717 960.765 509.088C961.701 507.459 963.001 506.211 964.665 505.344C966.329 504.443 968.253 503.992 970.437 503.992C972.621 503.992 974.545 504.443 976.209 505.344C977.908 506.211 979.225 507.459 980.161 509.088C981.097 510.717 981.565 512.589 981.565 514.704C981.565 516.853 981.097 518.76 980.161 520.424C979.225 522.088 977.908 523.371 976.209 524.272C974.545 525.173 972.621 525.624 970.437 525.624ZM970.437 522.608C972.587 522.608 974.32 521.897 975.637 520.476C976.955 519.02 977.613 517.096 977.613 514.704C977.613 512.381 976.955 510.527 975.637 509.14C974.32 507.719 972.587 507.008 970.437 507.008C968.288 507.008 966.572 507.719 965.289 509.14C964.007 510.561 963.365 512.433 963.365 514.756C963.365 517.113 964.007 519.02 965.289 520.476C966.607 521.897 968.323 522.608 970.437 522.608ZM1008.79 522.244V525H1001.3L1001.2 522.504C998.704 524.515 996.19 525.52 993.66 525.52C991.372 525.52 989.656 524.879 988.512 523.596C987.402 522.313 986.848 520.667 986.848 518.656V507.32H983.416V504.564H990.696V518.24C990.696 519.557 991.008 520.597 991.632 521.36C992.29 522.088 993.261 522.452 994.544 522.452C996.901 522.452 999.12 521.499 1001.2 519.592V507.32H997.508V504.564H1005V522.244H1008.79ZM1035.51 504.564V507.32H1032.08V525.468C1032.08 528.623 1031.12 530.963 1029.22 532.488C1027.31 534.013 1024.76 534.776 1021.57 534.776C1019.14 534.776 1016.58 534.36 1013.88 533.528L1014.66 530.512C1017.29 531.309 1019.56 531.708 1021.47 531.708C1023.62 531.708 1025.28 531.205 1026.46 530.2C1027.64 529.229 1028.23 527.739 1028.23 525.728V522.92C1027.26 523.648 1026.16 524.203 1024.95 524.584C1023.77 524.965 1022.59 525.156 1021.42 525.156C1019.47 525.156 1017.71 524.74 1016.11 523.908C1014.52 523.041 1013.25 521.811 1012.32 520.216C1011.41 518.621 1010.96 516.749 1010.96 514.6C1010.96 512.381 1011.41 510.492 1012.32 508.932C1013.22 507.337 1014.45 506.141 1016.01 505.344C1017.6 504.512 1019.37 504.096 1021.31 504.096C1022.49 504.096 1023.7 504.304 1024.95 504.72C1026.2 505.101 1027.27 505.656 1028.18 506.384V504.564H1035.51ZM1014.97 514.86C1014.97 517.183 1015.64 519.003 1017 520.32C1018.35 521.637 1020.08 522.296 1022.2 522.296C1023.2 522.296 1024.22 522.123 1025.26 521.776C1026.34 521.429 1027.33 520.927 1028.23 520.268L1028.18 509.036C1027.17 508.377 1026.1 507.857 1024.95 507.476C1023.84 507.095 1022.78 506.904 1021.78 506.904C1019.73 506.904 1018.09 507.615 1016.84 509.036C1015.59 510.423 1014.97 512.364 1014.97 514.86ZM1058.94 522.244V525H1052.34L1052.13 523.18C1051.02 524.012 1049.91 524.619 1048.8 525C1047.69 525.381 1046.45 525.572 1045.06 525.572C1042.98 525.572 1041.28 525 1039.96 523.856C1038.68 522.677 1038.04 521.221 1038.04 519.488C1038.04 517.269 1038.79 515.657 1040.28 514.652C1041.8 513.612 1043.79 513.092 1046.26 513.092C1048.02 513.092 1049.91 513.317 1051.92 513.768V511.636C1051.92 510.076 1051.49 508.897 1050.62 508.1C1049.79 507.303 1048.61 506.904 1047.09 506.904C1046.08 506.904 1044.92 507.077 1043.6 507.424C1042.32 507.736 1041.14 508.187 1040.07 508.776L1038.92 506.28C1040.07 505.552 1041.39 504.997 1042.88 504.616C1044.4 504.235 1045.82 504.044 1047.14 504.044C1049.81 504.044 1051.91 504.703 1053.43 506.02C1054.96 507.303 1055.72 509.053 1055.72 511.272V522.244H1058.94ZM1041.68 519.28C1041.68 520.355 1042.03 521.239 1042.72 521.932C1043.45 522.591 1044.42 522.92 1045.63 522.92C1047.68 522.92 1049.77 522.175 1051.92 520.684V516.004C1050.09 515.588 1048.28 515.38 1046.52 515.38C1045.13 515.38 1043.97 515.692 1043.03 516.316C1042.13 516.905 1041.68 517.893 1041.68 519.28ZM1086.51 522.244V525H1075.53V522.244H1078.91V511.584C1078.91 510.163 1078.57 509.053 1077.87 508.256C1077.18 507.459 1076.23 507.06 1075.01 507.06C1074.01 507.06 1072.99 507.251 1071.95 507.632C1070.94 507.979 1069.83 508.516 1068.62 509.244V522.244H1072.31V525H1060.87V522.244H1064.82V507.32H1060.87V504.564H1068.62V506.592C1071.32 504.893 1073.78 504.044 1076 504.044C1077.94 504.044 1079.54 504.651 1080.79 505.864C1082.07 507.043 1082.71 508.707 1082.71 510.856V522.244H1086.51ZM1108.74 515.588H1091.89C1092.14 517.772 1092.92 519.505 1094.23 520.788C1095.55 522.036 1097.23 522.66 1099.28 522.66C1102.12 522.66 1104.7 521.568 1107.03 519.384L1108.38 521.724C1107.37 522.903 1106.11 523.856 1104.58 524.584C1103.06 525.277 1101.34 525.624 1099.43 525.624C1097.28 525.624 1095.33 525.173 1093.56 524.272C1091.79 523.371 1090.4 522.105 1089.4 520.476C1088.39 518.812 1087.89 516.923 1087.89 514.808C1087.89 512.659 1088.36 510.769 1089.29 509.14C1090.26 507.476 1091.56 506.211 1093.19 505.344C1094.86 504.443 1096.7 503.992 1098.71 503.992C1101.83 503.992 1104.27 504.945 1106.04 506.852C1107.84 508.759 1108.74 511.341 1108.74 514.6V515.588ZM1104.95 513.196C1104.95 511.22 1104.36 509.66 1103.18 508.516C1102.03 507.372 1100.54 506.8 1098.71 506.8C1096.9 506.8 1095.38 507.372 1094.13 508.516C1092.88 509.66 1092.14 511.22 1091.89 513.196H1104.95Z" fill="black"/>
</svg>
