<svg width="1408" height="260" viewBox="0 0 1408 260" fill="none" xmlns="http://www.w3.org/2000/svg">
<g clip-path="url(#clip0)">
<rect width="1408" height="260" fill="white"/>
<rect width="1440" height="260" fill="#F2C94C"/>
<path d="M520.656 77.58C520.656 87.04 516.356 92.7733 507.756 94.78C504.889 95.4107 501.019 95.726 496.146 95.726H493.05V118H484.794V60.552H498.382C502.797 60.552 506.294 60.9247 508.874 61.67C511.454 62.358 513.719 63.5907 515.668 65.368C518.993 68.292 520.656 72.3627 520.656 77.58ZM508.616 86.696C511.081 84.9187 512.314 82.1093 512.314 78.268C512.314 74.4267 511.339 71.5887 509.39 69.754C507.383 67.7473 503.485 66.744 497.694 66.744H493.05V88.846H496.318C502.625 88.846 506.724 88.1293 508.616 86.696ZM536.856 118H529.116V74.484H535.566L536.426 80.934C537.458 79.214 539.149 77.58 541.5 76.032C543.908 74.4267 546.631 73.624 549.67 73.624C551.332 73.624 552.594 73.7673 553.454 74.054L551.906 80.246C551.39 80.1887 550.644 80.16 549.67 80.16C543.42 80.16 539.149 82.4247 536.856 86.954V118ZM587.406 113.614C584.081 117.283 579.723 119.118 574.334 119.118C568.945 119.118 564.645 117.312 561.434 113.7C558.223 110.088 556.618 104.355 556.618 96.5C556.618 88.588 558.281 82.7973 561.606 79.128C564.989 75.4587 569.375 73.624 574.764 73.624C580.153 73.624 584.425 75.43 587.578 79.042C590.789 82.654 592.394 88.416 592.394 96.328C592.394 104.183 590.731 109.945 587.406 113.614ZM574.592 79.988C567.884 79.988 564.53 85.4633 564.53 96.414C564.53 107.307 567.855 112.754 574.506 112.754C577.258 112.754 579.609 111.464 581.558 108.884C583.507 106.304 584.482 102.004 584.482 95.984C584.482 89.964 583.622 85.8073 581.902 83.514C580.239 81.1633 577.803 79.988 574.592 79.988ZM615.856 73.624L623.08 74.054C627.38 74.054 631.823 73.6527 636.41 72.85L637.356 77.666C635.177 78.1247 632.167 78.612 628.326 79.128C630.505 81.7653 631.594 85.2627 631.594 89.62C631.594 93.9773 630.275 97.618 627.638 100.542C625.001 103.409 621.188 104.871 616.2 104.928C614.709 104.928 613.247 104.785 611.814 104.498C610.897 106.505 610.438 108.167 610.438 109.486C610.438 111.435 611.957 112.41 614.996 112.41H622.908C627.036 112.41 630.247 113.356 632.54 115.248C634.833 117.083 635.98 119.634 635.98 122.902C635.98 127.546 634.117 131.273 630.39 134.082C626.721 136.891 622.019 138.296 616.286 138.296C610.61 138.296 606.281 137.321 603.3 135.372C600.319 133.423 598.828 130.671 598.828 127.116C598.828 122.644 601.465 119.032 606.74 116.28C605.249 115.076 604.504 113.299 604.504 110.948C604.504 108.597 605.622 105.989 607.858 103.122C605.507 101.803 603.701 99.94 602.44 97.532C601.179 95.0667 600.548 92.3147 600.548 89.276C600.548 84.632 601.838 80.8767 604.418 78.01C606.998 75.086 610.811 73.624 615.856 73.624ZM616.114 79.558C610.495 79.558 607.686 82.7687 607.686 89.19C607.686 95.6113 610.467 98.822 616.028 98.822C621.647 98.822 624.456 95.64 624.456 89.276C624.456 85.9507 623.797 83.514 622.478 81.966C621.217 80.3607 619.095 79.558 616.114 79.558ZM621.274 119.118H610.696C607.485 120.494 605.88 122.816 605.88 126.084C605.88 128.091 606.855 129.581 608.804 130.556C610.753 131.588 613.505 132.104 617.06 132.104C620.672 132.104 623.539 131.33 625.66 129.782C627.781 128.291 628.842 126.227 628.842 123.59C628.842 122.042 628.297 120.895 627.208 120.15C626.119 119.462 624.141 119.118 621.274 119.118ZM651.578 118H643.838V74.484H650.288L651.148 80.934C652.18 79.214 653.872 77.58 656.222 76.032C658.63 74.4267 661.354 73.624 664.392 73.624C666.055 73.624 667.316 73.7673 668.176 74.054L666.628 80.246C666.112 80.1887 665.367 80.16 664.392 80.16C658.143 80.16 653.872 82.4247 651.578 86.954V118ZM683.697 119.118C679.97 119.118 676.989 118.029 674.753 115.85C672.574 113.671 671.485 110.747 671.485 107.078C671.485 104.67 672.001 102.635 673.033 100.972C674.065 99.3093 675.412 98.0767 677.075 97.274C680.056 95.8407 683.181 95.124 686.449 95.124C689.717 95.124 692.755 95.2673 695.565 95.554V88.846C695.565 85.5207 694.991 83.256 693.845 82.052C692.755 80.7907 690.634 80.16 687.481 80.16C684.327 80.16 680.572 80.934 676.215 82.482L674.409 77.064C676.071 76.032 678.25 75.2007 680.945 74.57C683.697 73.9393 686.076 73.624 688.083 73.624C693.644 73.624 697.571 74.828 699.865 77.236C702.158 79.644 703.305 83.686 703.305 89.362V110.26C703.305 112.267 703.993 113.27 705.369 113.27C706.286 113.27 707.547 113.012 709.153 112.496L710.443 117.312C708.493 118.573 705.971 119.204 702.875 119.204C699.779 119.204 697.543 117.742 696.167 114.818C694.905 116.022 693.128 117.054 690.835 117.914C688.599 118.717 686.219 119.118 683.697 119.118ZM685.331 113.012C688.943 113.012 692.354 111.98 695.565 109.916V99.94C694.189 99.7107 691.953 99.596 688.857 99.596C682.149 99.596 678.766 101.832 678.709 106.304C678.709 110.776 680.916 113.012 685.331 113.012ZM749.083 88.502V118H741.343V88.588C741.343 85.9507 740.999 83.8867 740.311 82.396C739.623 80.9053 738.218 80.16 736.097 80.16C734.033 80.16 731.854 80.7047 729.561 81.794C727.267 82.8833 725.433 84.2593 724.057 85.922V118H716.317V74.484H722.767L723.627 79.73C725.232 78.182 727.325 76.7773 729.905 75.516C732.542 74.2547 735.093 73.624 737.559 73.624C742.776 73.624 746.187 75.7453 747.793 79.988C749.513 78.3827 751.749 76.9207 754.501 75.602C757.253 74.2833 759.833 73.624 762.241 73.624C769.923 73.624 773.765 78.4687 773.765 88.158V118H766.025V88.588C766.025 85.8933 765.681 83.8293 764.993 82.396C764.305 80.9053 762.957 80.16 760.951 80.16C758.944 80.16 756.823 80.7047 754.587 81.794C752.351 82.8833 750.459 84.1447 748.911 85.578C749.025 86.266 749.083 87.2407 749.083 88.502ZM817.95 88.502V118H810.21V88.588C810.21 85.9507 809.866 83.8867 809.178 82.396C808.49 80.9053 807.085 80.16 804.964 80.16C802.9 80.16 800.721 80.7047 798.428 81.794C796.135 82.8833 794.3 84.2593 792.924 85.922V118H785.184V74.484H791.634L792.494 79.73C794.099 78.182 796.192 76.7773 798.772 75.516C801.409 74.2547 803.961 73.624 806.426 73.624C811.643 73.624 815.055 75.7453 816.66 79.988C818.38 78.3827 820.616 76.9207 823.368 75.602C826.12 74.2833 828.7 73.624 831.108 73.624C838.791 73.624 842.632 78.4687 842.632 88.158V118H834.892V88.588C834.892 85.8933 834.548 83.8293 833.86 82.396C833.172 80.9053 831.825 80.16 829.818 80.16C827.811 80.16 825.69 80.7047 823.454 81.794C821.218 82.8833 819.326 84.1447 817.778 85.578C817.893 86.266 817.95 87.2407 817.95 88.502ZM861.791 118H853.965V74.828L861.791 74.054V118ZM852.417 61.67C852.417 60.2367 852.933 59.0327 853.965 58.058C854.997 57.026 856.23 56.51 857.663 56.51C859.096 56.51 860.3 57.026 861.275 58.058C862.307 59.0327 862.823 60.2367 862.823 61.67C862.823 63.1033 862.307 64.3647 861.275 65.454C860.3 66.486 859.096 67.002 857.663 67.002C856.23 67.002 854.997 66.486 853.965 65.454C852.933 64.3647 852.417 63.1033 852.417 61.67ZM906.564 88.158V118H898.824V88.588C898.824 85.9507 898.48 83.8867 897.792 82.396C897.104 80.9053 895.699 80.16 893.578 80.16C891.514 80.16 889.249 80.7333 886.784 81.88C884.376 82.9693 882.484 84.3167 881.108 85.922V118H873.368V74.484H879.818L880.678 79.73C882.283 78.182 884.433 76.7773 887.128 75.516C889.88 74.2547 892.517 73.624 895.04 73.624C899.34 73.624 902.321 74.914 903.984 77.494C905.704 80.0167 906.564 83.5713 906.564 88.158ZM931.637 73.624L938.861 74.054C943.161 74.054 947.605 73.6527 952.191 72.85L953.137 77.666C950.959 78.1247 947.949 78.612 944.107 79.128C946.286 81.7653 947.375 85.2627 947.375 89.62C947.375 93.9773 946.057 97.618 943.419 100.542C940.782 103.409 936.969 104.871 931.981 104.928C930.491 104.928 929.029 104.785 927.595 104.498C926.678 106.505 926.219 108.167 926.219 109.486C926.219 111.435 927.739 112.41 930.777 112.41H938.689C942.817 112.41 946.028 113.356 948.321 115.248C950.615 117.083 951.761 119.634 951.761 122.902C951.761 127.546 949.898 131.273 946.171 134.082C942.502 136.891 937.801 138.296 932.067 138.296C926.391 138.296 922.063 137.321 919.081 135.372C916.1 133.423 914.609 130.671 914.609 127.116C914.609 122.644 917.247 119.032 922.521 116.28C921.031 115.076 920.285 113.299 920.285 110.948C920.285 108.597 921.403 105.989 923.639 103.122C921.289 101.803 919.483 99.94 918.221 97.532C916.96 95.0667 916.329 92.3147 916.329 89.276C916.329 84.632 917.619 80.8767 920.199 78.01C922.779 75.086 926.592 73.624 931.637 73.624ZM931.895 79.558C926.277 79.558 923.467 82.7687 923.467 89.19C923.467 95.6113 926.248 98.822 931.809 98.822C937.428 98.822 940.237 95.64 940.237 89.276C940.237 85.9507 939.578 83.514 938.259 81.966C936.998 80.3607 934.877 79.558 931.895 79.558ZM937.055 119.118H926.477C923.267 120.494 921.661 122.816 921.661 126.084C921.661 128.091 922.636 129.581 924.585 130.556C926.535 131.588 929.287 132.104 932.841 132.104C936.453 132.104 939.32 131.33 941.441 129.782C943.563 128.291 944.623 126.227 944.623 123.59C944.623 122.042 944.079 120.895 942.989 120.15C941.9 119.462 939.922 119.118 937.055 119.118ZM501.908 185.16C498.353 185.16 494.856 186.364 491.416 188.772V216.206C493.595 217.123 496.318 217.582 499.586 217.582C506.81 217.582 510.422 211.963 510.422 200.726C510.422 190.349 507.584 185.16 501.908 185.16ZM491.416 162.8V182.666C492.505 181.806 494.168 180.917 496.404 180C498.697 179.083 500.962 178.624 503.198 178.624C507.555 178.624 511.196 180.43 514.12 184.042C517.044 187.597 518.506 192.613 518.506 199.092C518.506 215.776 512.171 224.118 499.5 224.118C493.423 224.118 488.148 222.742 483.676 219.99V162.8H491.416ZM528.278 162.8H536.104V214.228C536.104 216.464 537.136 217.582 539.2 217.582C540.805 217.582 542.496 217.295 544.274 216.722L545.564 222.398C543.213 223.545 540.318 224.118 536.878 224.118C531.144 224.118 528.278 220.85 528.278 214.314V162.8ZM579.932 218.614C576.606 222.283 572.249 224.118 566.86 224.118C561.47 224.118 557.17 222.312 553.96 218.7C550.749 215.088 549.144 209.355 549.144 201.5C549.144 193.588 550.806 187.797 554.132 184.128C557.514 180.459 561.9 178.624 567.289 178.624C572.679 178.624 576.95 180.43 580.104 184.042C583.314 187.654 584.92 193.416 584.92 201.328C584.92 209.183 583.257 214.945 579.932 218.614ZM567.118 184.988C560.41 184.988 557.056 190.463 557.056 201.414C557.056 212.307 560.381 217.754 567.032 217.754C569.784 217.754 572.134 216.464 574.084 213.884C576.033 211.304 577.008 207.004 577.008 200.984C577.008 194.964 576.148 190.807 574.428 188.514C572.765 186.163 570.328 184.988 567.118 184.988ZM608.381 178.624L615.605 179.054C619.905 179.054 624.349 178.653 628.935 177.85L629.881 182.666C627.703 183.125 624.693 183.612 620.851 184.128C623.03 186.765 624.119 190.263 624.119 194.62C624.119 198.977 622.801 202.618 620.163 205.542C617.526 208.409 613.713 209.871 608.725 209.928C607.235 209.928 605.773 209.785 604.339 209.498C603.422 211.505 602.963 213.167 602.963 214.486C602.963 216.435 604.483 217.41 607.521 217.41H615.433C619.561 217.41 622.772 218.356 625.065 220.248C627.359 222.083 628.505 224.634 628.505 227.902C628.505 232.546 626.642 236.273 622.915 239.082C619.246 241.891 614.545 243.296 608.811 243.296C603.135 243.296 598.807 242.321 595.825 240.372C592.844 238.423 591.353 235.671 591.353 232.116C591.353 227.644 593.991 224.032 599.265 221.28C597.775 220.076 597.029 218.299 597.029 215.948C597.029 213.597 598.147 210.989 600.383 208.122C598.033 206.803 596.227 204.94 594.965 202.532C593.704 200.067 593.073 197.315 593.073 194.276C593.073 189.632 594.363 185.877 596.943 183.01C599.523 180.086 603.336 178.624 608.381 178.624ZM608.639 184.558C603.021 184.558 600.211 187.769 600.211 194.19C600.211 200.611 602.992 203.822 608.553 203.822C614.172 203.822 616.981 200.64 616.981 194.276C616.981 190.951 616.322 188.514 615.003 186.966C613.742 185.361 611.621 184.558 608.639 184.558ZM613.799 224.118H603.221C600.011 225.494 598.405 227.816 598.405 231.084C598.405 233.091 599.38 234.581 601.329 235.556C603.279 236.588 606.031 237.104 609.585 237.104C613.197 237.104 616.064 236.33 618.185 234.782C620.307 233.291 621.367 231.227 621.367 228.59C621.367 227.042 620.823 225.895 619.733 225.15C618.644 224.462 616.666 224.118 613.799 224.118Z" fill="black"/>
</g>
<defs>
<clipPath id="clip0">
<rect width="1408" height="260" fill="white"/>
</clipPath>
</defs>
</svg>
